<?xml version="1.0" standalone="no"?>
<!DOCTYPE svg PUBLIC "-//W3C//DTD SVG 20010904//EN"
 "http://www.w3.org/TR/2001/REC-SVG-20010904/DTD/svg10.dtd">
<svg version="1.0" xmlns="http://www.w3.org/2000/svg"
 width="900.000000pt" height="291.000000pt" viewBox="0 0 900.000000 291.000000"
 preserveAspectRatio="xMidYMid meet">
<metadata>
Created by potrace 1.10, written by Peter Selinger 2001-2011
</metadata>
<g transform="translate(0.000000,291.000000) scale(0.100000,-0.100000)"
fill="#ffffff" stroke="none">
<path d="M4425 2725 c-22 -14 -47 -28 -55 -32 -8 -4 -69 -39 -135 -78 -66 -39
-127 -74 -135 -78 -8 -4 -22 -11 -30 -17 -39 -26 -223 -130 -229 -130 -4 0
-15 -8 -24 -18 -15 -17 -17 -59 -17 -398 0 -208 4 -384 8 -389 10 -15 59 -48
117 -79 28 -15 57 -31 65 -37 37 -23 272 -159 275 -159 2 0 49 -27 105 -60 56
-33 106 -60 112 -60 6 0 32 13 57 28 25 16 53 31 61 35 8 4 29 16 45 27 17 11
44 26 60 34 17 8 53 29 80 45 28 17 59 35 70 41 11 6 29 16 40 23 11 7 52 30
90 52 39 22 79 45 90 52 11 7 30 17 42 22 12 6 27 19 32 30 7 13 11 151 11
399 0 424 6 388 -75 432 -22 11 -47 25 -55 30 -30 19 -215 126 -230 133 -8 4
-28 16 -45 27 -16 11 -37 23 -45 27 -8 4 -48 26 -88 50 -41 24 -77 43 -82 43
-4 0 -13 7 -20 15 -18 21 -49 18 -95 -10z m-27 -585 c41 -58 78 -105 82 -105
7 0 37 40 146 193 12 17 24 22 47 20 42 -4 40 -21 -10 -89 -22 -30 -61 -84
-87 -121 -47 -68 -47 -68 -94 -68 l-47 0 -69 95 c-38 52 -73 92 -77 89 -5 -3
-9 -46 -9 -95 l0 -90 -32 3 -33 3 -3 115 c-4 161 -3 162 61 158 l52 -3 73
-105z m357 -66 l0 -99 -37 -3 -38 -3 0 66 c0 57 4 73 28 106 15 21 32 37 37
35 6 -1 10 -44 10 -102z m-7 -346 c3 -22 -2 -29 -20 -33 -13 -3 -131 -4 -263
-3 l-240 3 -3 33 -3 32 263 -2 263 -3 3 -27z"/>
<path d="M1317 448 c-18 -24 -47 -63 -64 -88 -16 -25 -55 -82 -86 -126 -31
-45 -53 -85 -50 -88 13 -12 73 -5 85 10 52 64 51 64 191 64 l129 0 37 -40 c30
-33 43 -40 74 -40 54 0 56 -4 -64 170 -121 176 -126 180 -191 180 -19 0 -36
-11 -61 -42z m125 -92 c20 -30 34 -57 31 -60 -10 -10 -163 -7 -163 3 0 19 66
111 80 111 9 0 32 -24 52 -54z"/>
<path d="M1813 477 c-85 -24 -113 -110 -52 -161 17 -14 42 -26 57 -26 67 0
254 -24 268 -35 14 -9 14 -16 5 -33 -11 -21 -19 -22 -123 -22 -76 0 -128 5
-164 16 -58 19 -84 14 -84 -15 0 -32 41 -51 136 -62 126 -14 239 -3 287 27 37
24 38 27 35 76 -2 41 -8 55 -28 69 -33 24 -113 39 -212 39 -87 0 -118 11 -118
40 0 14 10 21 37 26 47 9 238 -3 263 -16 15 -8 21 -6 30 10 18 34 -2 53 -72
67 -79 15 -210 15 -265 0z"/>
<path d="M4227 476 c-39 -17 -58 -49 -55 -92 3 -36 2 -37 -45 -53 -51 -17 -87
-58 -87 -99 0 -12 15 -39 34 -60 l34 -37 95 0 c92 1 127 9 210 51 33 16 63 18
71 5 3 -5 24 -18 46 -30 42 -22 143 -30 154 -12 3 5 -22 23 -56 39 -35 16 -71
36 -81 44 -18 13 -16 16 22 42 34 24 41 35 41 61 0 39 -8 49 -28 33 -17 -14
-49 -33 -79 -47 -11 -5 -24 -15 -28 -20 -11 -19 -53 -12 -105 19 -28 17 -54
30 -58 30 -4 0 -20 11 -36 24 l-30 23 23 13 c16 8 56 11 120 9 l96 -4 0 25 c0
16 -8 29 -25 37 -32 16 -195 16 -233 -1z m102 -213 c39 -15 35 -23 -27 -46
-58 -23 -124 -22 -153 2 -23 19 -23 20 -5 39 28 32 113 35 185 5z"/>
<path d="M6798 483 c-15 -4 -50 -51 -152 -203 -16 -25 -42 -61 -58 -81 -37
-49 -35 -59 9 -59 31 0 44 7 74 40 l37 40 132 0 132 0 37 -40 c30 -33 43 -40
74 -40 21 0 37 5 37 11 0 6 -21 41 -48 78 -62 86 -87 122 -124 179 -51 76 -83
93 -150 75z m90 -122 c17 -28 32 -55 32 -60 0 -12 -152 -16 -163 -5 -10 10 66
113 83 114 8 0 30 -22 48 -49z"/>
<path d="M8230 476 c-66 -18 -96 -42 -121 -93 -41 -85 -6 -179 86 -227 34 -17
58 -20 165 -20 107 0 131 3 165 20 26 13 41 29 43 44 6 37 -10 42 -73 20 -66
-23 -197 -27 -242 -8 -55 23 -73 48 -73 98 0 39 5 51 31 76 30 29 31 29 147
28 92 0 124 -4 150 -18 19 -9 40 -15 48 -12 18 7 18 50 0 66 -43 35 -236 51
-326 26z"/>
<path d="M405 471 c-10 -17 -7 -313 3 -323 5 -5 22 -8 38 -6 l29 3 3 118 c2
110 4 117 21 108 10 -6 35 -36 57 -68 21 -32 56 -82 78 -111 l38 -52 57 0 56
0 55 83 c55 82 131 191 150 214 21 26 11 43 -25 43 -40 0 -48 -7 -113 -102
-26 -37 -63 -89 -82 -117 -19 -28 -40 -51 -45 -51 -6 0 -29 28 -52 63 -23 34
-64 94 -91 132 l-48 70 -61 3 c-35 2 -64 -2 -68 -7z"/>
<path d="M2233 473 c-7 -2 -13 -15 -13 -29 0 -29 15 -33 130 -36 l85 -3 5
-130 5 -130 35 0 35 0 5 130 5 130 94 3 c52 1 101 8 108 14 18 15 16 45 -3 52
-19 7 -473 7 -491 -1z"/>
<path d="M2804 467 c-2 -7 -3 -82 -2 -167 l3 -155 211 -3 c222 -3 244 1 228
42 -5 14 -28 16 -166 16 -91 0 -168 4 -179 10 -27 15 -25 58 4 65 12 3 90 6
172 8 l150 2 0 30 0 30 -173 3 -173 2 3 28 3 27 175 6 c96 3 176 6 178 7 2 1
2 14 0 30 l-3 27 -213 3 c-168 2 -214 0 -218 -11z"/>
<path d="M3334 467 c-2 -7 -3 -82 -2 -167 l3 -155 38 -3 37 -3 0 40 c0 66 5
71 71 71 54 0 66 -5 147 -55 78 -48 95 -55 140 -55 40 0 52 4 52 15 0 8 -5 15
-11 15 -15 0 -118 63 -119 72 0 4 15 14 34 22 40 17 76 64 76 101 0 45 -36 93
-78 105 -57 15 -381 13 -388 -3z m364 -69 c16 -16 15 -53 -2 -67 -9 -8 -57
-11 -147 -9 l-134 3 -3 28 c-7 56 -4 57 141 57 90 0 137 -4 145 -12z"/>
<path d="M4925 468 c-3 -8 -4 -83 -3 -168 l3 -155 170 -3 c143 -2 176 0 210
15 76 32 107 76 108 152 1 60 -24 105 -75 139 -41 26 -44 27 -225 31 -150 3
-184 1 -188 -11z m355 -73 c74 -38 66 -147 -13 -175 -48 -17 -219 -25 -245
-11 -20 11 -22 19 -22 100 0 48 3 91 7 94 3 4 60 7 125 7 87 0 127 -4 148 -15z"/>
<path d="M5430 468 c0 -7 28 -36 63 -65 34 -28 81 -70 105 -93 41 -40 42 -42
42 -106 l0 -65 38 3 37 3 3 65 c2 45 8 69 20 80 9 9 49 43 87 75 39 33 78 66
88 75 29 25 21 40 -22 40 -39 0 -70 -20 -165 -104 -16 -14 -36 -26 -43 -26 -8
0 -48 29 -89 65 -68 59 -79 65 -119 65 -29 0 -45 -4 -45 -12z"/>
<path d="M6012 472 c-9 -7 -12 -47 -10 -168 l3 -159 37 -3 37 -3 3 122 c2 70
7 124 13 126 11 3 29 -11 149 -121 144 -131 139 -127 198 -124 l53 3 0 165 0
165 -34 3 c-20 2 -37 -2 -42 -10 -5 -7 -9 -61 -9 -120 0 -59 -4 -109 -8 -112
-4 -2 -32 19 -62 48 -30 28 -92 84 -138 124 -77 68 -85 72 -130 72 -26 0 -53
-4 -60 -8z"/>
<path d="M7197 473 c-4 -3 -7 -80 -7 -170 l0 -164 38 3 37 3 3 113 c3 131 10
138 63 60 20 -29 55 -81 78 -115 l43 -63 56 0 57 0 65 97 c63 95 101 143 113
143 4 0 8 -53 9 -117 l3 -118 35 0 35 0 0 165 0 165 -56 3 c-66 3 -63 6 -169
-151 -42 -62 -82 -113 -90 -114 -9 -1 -36 31 -65 75 -27 42 -69 102 -92 134
l-43 58 -53 0 c-30 0 -57 -3 -60 -7z"/>
<path d="M7945 470 c-5 -8 -9 -226 -5 -318 0 -9 12 -12 38 -10 l37 3 3 154 c2
104 -1 158 -9 167 -13 16 -55 19 -64 4z"/>
<path d="M1025 352 c-34 -25 -56 -88 -53 -151 l3 -56 35 0 35 0 3 108 c3 102
-1 116 -23 99z"/>
</g>
</svg>
