<?xml version="1.0" standalone="no"?>
<!DOCTYPE svg PUBLIC "-//W3C//DTD SVG 20010904//EN"
 "http://www.w3.org/TR/2001/REC-SVG-20010904/DTD/svg10.dtd">
<svg version="1.0" xmlns="http://www.w3.org/2000/svg"
 width="600.000000pt" height="450.000000pt" viewBox="0 0 600.000000 450.000000"
 preserveAspectRatio="xMidYMid meet">
<metadata>
Created by potrace 1.10, written by Peter Selinger 2001-2011
</metadata>
<g transform="translate(0.000000,450.000000) scale(0.100000,-0.100000)"
fill="#ffffff" stroke="none">
<path d="M2775 3925 c-225 -29 -454 -108 -657 -228 -89 -52 -234 -162 -307
-231 -111 -106 -291 -348 -315 -423 -4 -13 -12 -23 -17 -23 -5 0 -9 -5 -9 -11
0 -6 -13 -40 -30 -75 -16 -35 -43 -104 -59 -154 -140 -417 -114 -871 74 -1264
61 -129 92 -178 191 -311 267 -357 683 -594 1139 -650 336 -41 649 13 955 164
98 48 253 141 270 160 3 3 28 24 55 45 118 92 263 254 356 399 57 88 142 266
178 374 143 429 115 876 -80 1278 -74 152 -104 200 -215 340 -150 189 -356
350 -594 463 -285 135 -615 187 -935 147z m465 -268 c74 -15 142 -32 231 -61
54 -17 232 -104 282 -138 18 -13 58 -39 88 -59 70 -47 261 -238 308 -308 92
-138 178 -299 201 -376 6 -22 18 -62 26 -90 50 -174 66 -410 39 -580 -9 -61
-23 -130 -30 -155 -7 -25 -18 -65 -25 -90 -75 -260 -311 -576 -553 -741 -86
-58 -228 -138 -272 -152 -11 -4 -40 -14 -65 -22 -165 -57 -301 -80 -475 -80
-184 0 -273 14 -485 77 -38 11 -217 98 -259 126 -14 9 -33 22 -42 27 -148 94
-309 251 -407 399 -77 115 -151 263 -177 351 -9 33 -23 80 -30 105 -41 141
-53 417 -26 575 80 469 369 856 799 1069 135 68 280 110 477 140 58 8 321 -3
395 -17z"/>
<path d="M2264 2422 c-88 -49 -109 -84 -109 -184 0 -70 2 -79 31 -115 91 -113
247 -111 328 5 26 37 30 51 30 112 0 61 -4 75 -29 111 -57 80 -175 113 -251
71z"/>
<path d="M2908 2426 c-120 -53 -157 -224 -69 -320 99 -109 290 -75 338 62 48
138 -46 273 -189 271 -29 0 -65 -6 -80 -13z"/>
<path d="M3535 2417 c-21 -12 -53 -41 -69 -65 -26 -37 -30 -51 -30 -111 -1
-61 2 -74 29 -113 70 -99 210 -116 305 -36 33 28 53 73 58 134 4 52 1 70 -18
105 -24 47 -37 60 -92 89 -50 27 -130 25 -183 -3z"/>
</g>
</svg>
