<?xml version="1.0" standalone="no"?>
<!DOCTYPE svg PUBLIC "-//W3C//DTD SVG 20010904//EN"
 "http://www.w3.org/TR/2001/REC-SVG-20010904/DTD/svg10.dtd">
<svg version="1.0" xmlns="http://www.w3.org/2000/svg"
 width="900.000000pt" height="900.000000pt" viewBox="0 0 900.000000 900.000000"
 preserveAspectRatio="xMidYMid meet">
<metadata>
Created by potrace 1.10, written by Peter Selinger 2001-2011
</metadata>
<g transform="translate(0.000000,900.000000) scale(0.100000,-0.100000)"
fill="#ffffff" stroke="none">
<path d="M4255 8821 c-217 -34 -274 -52 -462 -144 -182 -89 -333 -206 -471
-364 -115 -132 -219 -313 -287 -503 -37 -104 -75 -338 -74 -465 0 -109 29
-305 58 -400 12 -38 26 -85 30 -103 19 -72 129 -272 207 -377 147 -196 330
-353 524 -447 117 -57 191 -88 208 -88 9 0 34 -6 57 -14 121 -41 197 -51 405
-51 231 0 283 9 525 87 221 72 487 270 655 489 84 110 210 329 210 367 0 6 6
26 14 44 17 41 39 120 62 223 15 64 18 121 17 277 -1 197 -12 287 -49 393 -8
23 -14 48 -14 57 0 17 -32 92 -91 213 -41 84 -45 91 -121 201 -43 63 -205 239
-253 274 -11 9 -47 36 -80 61 -93 71 -298 179 -380 200 -16 4 -43 12 -60 18
-106 36 -337 72 -450 70 -38 -1 -119 -9 -180 -18z"/>
<path d="M3825 5454 c-85 -8 -222 -41 -360 -86 -191 -62 -430 -220 -586 -385
-81 -86 -189 -227 -189 -246 0 -21 17 -31 95 -55 96 -29 157 -50 177 -62 10
-6 24 -10 32 -10 8 0 76 -20 153 -45 76 -25 161 -51 188 -59 28 -8 95 -29 150
-45 55 -17 107 -31 115 -31 14 0 31 -5 156 -44 29 -9 60 -16 70 -16 56 0 274
-95 373 -162 56 -39 109 -85 178 -155 28 -29 55 -53 60 -53 4 0 42 34 83 76
151 152 348 256 580 309 41 9 97 23 124 31 26 8 54 14 62 14 7 0 28 6 46 14
18 7 60 21 93 30 173 49 249 73 380 117 66 22 134 44 150 49 31 9 157 51 233
78 23 8 42 21 42 29 0 23 -117 171 -204 259 -76 75 -191 167 -281 225 -57 37
-241 124 -300 143 -261 82 -222 79 -940 81 -352 1 -658 1 -680 -1z"/>
<path d="M7580 4888 c-14 -5 -43 -17 -65 -25 -38 -15 -58 -23 -137 -57 -79
-33 -210 -85 -310 -122 -21 -8 -55 -20 -75 -28 -21 -8 -65 -25 -98 -37 -33
-12 -82 -30 -110 -41 -27 -11 -61 -23 -75 -28 -14 -5 -50 -18 -80 -30 -30 -12
-107 -39 -170 -60 -63 -22 -140 -48 -170 -60 -66 -25 -333 -114 -410 -137 -30
-9 -86 -27 -125 -40 -62 -21 -95 -31 -210 -64 -16 -4 -61 -17 -100 -29 -38
-11 -83 -23 -100 -26 -16 -3 -50 -12 -75 -19 -25 -7 -74 -20 -110 -30 -104
-28 -172 -53 -230 -87 -8 -4 -22 -11 -30 -15 -48 -21 -160 -121 -199 -178 -81
-118 -124 -229 -159 -410 -13 -69 -15 -298 -19 -1635 -2 -855 1 -1561 5 -1568
7 -10 26 -7 88 13 43 14 124 39 179 56 55 17 165 51 245 76 80 25 168 52 195
61 28 8 65 21 83 28 18 8 40 14 50 14 9 0 34 6 57 14 22 8 87 29 145 46 58 18
123 38 145 45 85 27 142 43 205 60 36 9 83 23 105 30 94 29 231 69 315 90 197
50 412 116 540 165 30 12 68 26 84 31 53 16 259 122 341 175 169 109 264 220
319 375 14 39 16 87 14 314 l-3 269 -85 18 c-156 33 -210 56 -317 135 -118 87
-200 214 -229 353 -20 93 -20 857 0 950 28 137 111 266 225 349 109 79 173
106 311 130 l95 16 0 460 c0 501 3 478 -55 453z"/>
<path d="M1262 4878 c-17 -17 -17 -879 0 -896 7 -7 39 -12 72 -12 77 0 180
-16 229 -35 20 -8 56 -23 80 -32 90 -37 206 -142 263 -238 32 -55 56 -122 74
-205 15 -70 8 -883 -8 -950 -45 -193 -172 -341 -356 -414 -72 -29 -204 -56
-273 -56 -23 0 -53 -4 -67 -10 l-26 -10 0 -270 c0 -282 1 -290 48 -390 56
-116 158 -218 317 -317 58 -36 297 -153 312 -153 6 0 41 -13 78 -30 37 -16 73
-30 81 -30 7 0 28 -6 46 -14 18 -8 60 -22 93 -31 124 -37 236 -67 325 -90 72
-18 154 -41 215 -60 22 -6 66 -19 98 -28 114 -33 164 -47 257 -76 52 -16 142
-44 200 -61 156 -48 186 -57 287 -90 50 -17 97 -30 103 -30 7 0 26 -6 43 -13
18 -8 57 -21 87 -30 49 -15 260 -82 380 -121 25 -9 62 -18 83 -22 l37 -6 1 83
c0 46 0 754 0 1574 0 1693 5 1584 -77 1798 -32 82 -60 129 -116 196 -49 59
-145 141 -165 141 -3 0 -14 6 -22 13 -27 23 -162 74 -241 92 -41 10 -84 21
-95 25 -12 4 -61 17 -110 29 -102 25 -175 47 -223 67 -18 8 -42 14 -53 14 -18
0 -112 29 -369 116 -41 14 -129 43 -195 65 -66 21 -129 43 -140 48 -46 20
-159 60 -200 71 -16 4 -56 19 -89 34 -32 14 -65 26 -72 26 -7 0 -28 6 -46 14
-47 20 -168 68 -268 105 -47 18 -98 38 -115 45 -16 7 -68 28 -115 45 -78 30
-135 52 -277 110 -60 24 -74 26 -91 9z"/>
<path d="M1220 3632 c-126 -33 -213 -103 -268 -217 l-32 -65 0 -345 0 -345 32
-65 c64 -132 156 -196 334 -230 52 -10 181 23 238 60 66 44 75 52 112 100 77
100 87 161 82 530 l-3 280 -28 60 c-46 99 -96 156 -168 192 -131 65 -188 74
-299 45z"/>
<path d="M7550 3630 c-36 -10 -81 -26 -100 -36 -41 -21 -140 -119 -156 -154
-46 -101 -44 -85 -44 -428 0 -307 1 -330 21 -382 49 -129 164 -226 301 -254
76 -16 121 -13 203 13 88 27 177 103 223 189 55 103 65 178 59 476 -5 282 -7
300 -64 397 -53 91 -119 139 -246 179 -75 24 -112 24 -197 0z"/>
</g>
</svg>
