<?xml version="1.0" standalone="no"?>
<!DOCTYPE svg PUBLIC "-//W3C//DTD SVG 20010904//EN"
 "http://www.w3.org/TR/2001/REC-SVG-20010904/DTD/svg10.dtd">
<svg version="1.0" xmlns="http://www.w3.org/2000/svg"
 width="600.000000pt" height="600.000000pt" viewBox="0 0 600.000000 600.000000"
 preserveAspectRatio="xMidYMid meet">
<metadata>
Created by potrace 1.10, written by Peter Selinger 2001-2011
</metadata>
<g transform="translate(0.000000,600.000000) scale(0.100000,-0.100000)"
fill="#ffffff" stroke="none">
<path d="M2000 4835 c-8 -9 -30 -15 -60 -15 -30 0 -52 -6 -60 -15 -7 -8 -29
-15 -50 -15 -24 0 -40 -5 -44 -15 -3 -9 -18 -15 -39 -15 -19 0 -40 -7 -47 -15
-7 -8 -20 -15 -30 -15 -10 0 -23 -7 -30 -15 -7 -8 -20 -15 -30 -15 -10 0 -23
-7 -30 -15 -7 -8 -20 -15 -30 -15 -10 0 -23 -7 -30 -15 -7 -8 -17 -15 -22 -15
-6 0 -27 -13 -48 -30 -21 -16 -42 -30 -47 -30 -5 0 -41 -28 -79 -63 -39 -34
-84 -73 -102 -85 -17 -13 -66 -64 -108 -115 -43 -51 -84 -96 -91 -100 -7 -4
-13 -14 -13 -22 0 -8 -21 -46 -47 -85 -45 -65 -51 -70 -84 -70 -20 0 -42 -7
-49 -15 -7 -8 -23 -15 -35 -15 -12 0 -28 -7 -35 -15 -7 -8 -18 -15 -25 -15 -7
0 -18 -7 -25 -15 -7 -8 -20 -15 -29 -15 -20 0 -211 -194 -211 -214 0 -7 -7
-19 -15 -26 -8 -7 -15 -20 -15 -30 0 -10 -7 -23 -15 -30 -8 -7 -15 -23 -15
-35 0 -12 -7 -28 -15 -35 -9 -7 -15 -29 -15 -55 0 -26 -6 -48 -15 -55 -22 -18
-22 -242 0 -260 9 -8 15 -29 15 -55 0 -29 5 -45 15 -49 8 -3 15 -15 15 -27 0
-24 29 -80 48 -92 6 -4 12 -15 12 -24 0 -8 13 -32 30 -53 16 -21 30 -42 30
-48 0 -15 228 -232 244 -232 7 0 19 -7 26 -15 7 -8 20 -15 30 -15 10 0 23 -7
30 -15 7 -8 27 -15 45 -15 18 0 38 -7 45 -15 10 -12 45 -15 200 -15 155 0 190
3 200 15 7 8 25 15 40 15 15 0 33 7 40 15 7 8 20 15 30 15 10 0 23 7 30 15 7
8 20 15 30 15 9 0 30 13 46 30 16 16 37 30 47 30 10 0 20 7 23 15 4 8 12 15
20 15 12 0 14 -110 14 -709 0 -618 2 -710 15 -721 8 -7 15 -20 15 -29 0 -24
54 -80 94 -96 19 -8 37 -19 41 -25 4 -6 88 -10 226 -10 l220 0 69 70 c59 59
70 75 70 103 0 19 7 40 15 47 13 11 15 114 15 819 l0 807 37 36 c21 20 45 38
54 40 15 3 130 101 203 174 48 47 156 172 156 179 0 4 14 24 30 45 17 21 30
45 30 53 0 8 7 20 15 27 8 7 15 20 15 30 0 10 7 23 15 30 8 7 15 26 15 43 0
17 7 38 16 48 24 26 23 462 0 488 -9 10 -16 34 -16 53 0 20 -7 41 -15 48 -8 7
-15 23 -15 35 0 12 -7 28 -15 35 -8 7 -15 18 -15 25 0 29 -75 126 -177 228
-59 59 -111 107 -116 107 -5 0 -26 14 -47 30 -21 17 -47 30 -58 30 -11 0 -22
7 -26 15 -3 9 -18 15 -34 15 -16 0 -35 7 -42 15 -7 8 -29 15 -50 15 -21 0 -43
7 -50 15 -10 12 -43 15 -180 15 -137 0 -170 -3 -180 -15z m360 -90 c7 -8 27
-15 45 -15 18 0 38 -7 45 -15 7 -8 20 -15 30 -15 10 0 23 -7 30 -15 7 -8 18
-15 26 -15 43 0 304 -234 304 -272 0 -9 7 -21 15 -28 8 -7 15 -18 15 -25 0 -7
7 -18 15 -25 8 -7 15 -23 15 -37 0 -13 7 -26 15 -29 9 -4 15 -19 15 -39 0 -18
7 -38 15 -45 11 -9 15 -33 15 -89 1 -51 5 -82 15 -95 20 -26 20 -116 0 -142
-9 -12 -14 -43 -15 -85 0 -47 -4 -70 -15 -79 -8 -7 -15 -23 -15 -35 0 -12 -7
-28 -15 -35 -8 -7 -15 -20 -15 -30 0 -10 -7 -23 -15 -30 -8 -7 -15 -16 -15
-21 0 -37 -289 -354 -358 -392 -11 -7 -55 -36 -97 -64 -41 -29 -82 -53 -90
-53 -7 0 -17 -5 -20 -11 -4 -5 -17 -15 -28 -20 -12 -5 -42 -21 -66 -34 -24
-14 -53 -25 -63 -25 -10 0 -21 -7 -24 -15 -4 -8 -18 -15 -34 -15 -15 0 -33 -7
-40 -15 -7 -9 -29 -15 -55 -15 -26 0 -48 -6 -55 -15 -17 -21 -180 -22 -180 -1
0 8 7 16 15 20 11 4 15 21 15 58 1 31 7 61 15 72 21 27 21 149 0 166 -10 9
-15 32 -15 77 0 47 -4 65 -15 69 -10 4 -15 20 -15 45 0 26 -5 42 -15 45 -8 4
-15 16 -15 29 0 12 -7 28 -15 35 -8 7 -15 23 -15 35 0 13 -7 25 -15 29 -8 3
-15 14 -15 24 0 11 -7 25 -15 32 -8 7 -15 19 -15 27 0 8 -12 32 -27 52 -16 20
-32 43 -38 52 -24 39 -128 160 -151 176 -14 10 -43 33 -64 51 -20 17 -42 32
-47 32 -6 0 -16 7 -23 15 -7 8 -20 15 -30 15 -10 0 -23 7 -30 15 -7 8 -25 15
-40 15 -16 0 -30 7 -34 15 -4 11 -20 15 -55 15 -27 0 -52 4 -55 8 -3 5 8 22
24 37 17 16 30 36 30 45 0 9 62 77 138 153 138 138 183 177 199 177 5 0 22 14
38 30 16 17 34 30 41 30 7 0 33 14 57 30 25 17 49 30 55 30 5 0 15 7 22 15 7
8 23 15 35 15 12 0 28 7 35 15 7 8 23 15 35 15 12 0 28 7 35 15 7 8 27 15 45
15 18 0 38 7 45 15 8 10 30 15 62 15 34 0 50 4 54 15 5 13 35 15 179 15 141 0
175 -3 185 -15z m-1214 -780 c10 -8 29 -15 40 -15 12 0 27 -7 34 -15 7 -8 17
-15 23 -15 15 0 85 -60 162 -138 62 -61 175 -218 175 -240 0 -6 7 -12 15 -16
8 -3 15 -16 15 -30 0 -13 7 -26 15 -30 9 -3 15 -18 15 -34 0 -16 7 -35 15 -42
8 -7 15 -25 15 -40 0 -15 7 -33 15 -40 9 -8 15 -30 15 -59 0 -25 7 -55 15 -65
21 -27 20 -183 0 -210 -8 -11 -15 -30 -15 -42 0 -12 -7 -27 -15 -34 -8 -7 -15
-18 -15 -24 -1 -28 -123 -132 -208 -176 -23 -12 -45 -26 -48 -31 -3 -5 -19 -9
-35 -9 -17 0 -32 -6 -35 -15 -5 -13 -36 -15 -194 -15 -154 0 -190 3 -200 15
-7 8 -23 15 -35 15 -12 0 -28 7 -35 15 -7 8 -18 15 -25 15 -7 0 -18 7 -25 15
-7 8 -20 15 -29 15 -17 0 -164 142 -184 178 -7 12 -36 55 -64 97 -29 41 -53
82 -53 89 0 7 -7 19 -15 26 -8 7 -15 27 -15 45 0 18 -7 38 -15 45 -22 18 -22
265 0 274 10 3 15 19 15 45 0 25 5 41 15 45 8 3 15 15 15 27 0 11 14 41 30 66
17 24 30 48 30 52 0 17 132 151 149 151 10 0 30 14 46 30 16 17 39 30 51 30
12 0 27 7 34 15 7 8 25 15 40 15 15 0 33 7 40 15 18 21 198 21 226 0z m1212
-1812 l-3 -778 -40 0 c-33 0 -40 4 -45 25 l-6 25 -249 5 -250 5 -3 658 -2 657
79 0 c58 0 82 4 91 15 8 10 31 15 67 15 38 0 55 4 59 15 4 10 20 15 45 15 26
0 42 5 45 15 4 8 16 15 29 15 12 0 28 7 35 15 7 8 20 15 30 15 10 0 23 7 30
15 7 8 21 15 32 15 10 0 21 7 24 15 4 8 12 15 20 15 12 0 14 -117 12 -777z
m-150 -810 l-3 -28 -218 -3 c-187 -2 -218 0 -223 13 -4 8 -4 22 0 30 4 13 39
15 226 15 l221 0 -3 -27z m122 -43 c0 -20 -75 -79 -101 -80 -14 0 -34 -7 -45
-15 -27 -20 -211 -20 -238 0 -11 8 -37 15 -58 15 -27 0 -38 4 -38 15 0 13 26
15 170 15 l169 0 43 30 c42 28 98 40 98 20z"/>
<path d="M2540 4475 c-7 -8 -21 -15 -32 -15 -11 0 -40 -13 -65 -30 -24 -16
-49 -30 -55 -30 -5 0 -27 -13 -48 -30 -21 -16 -42 -30 -48 -30 -5 0 -15 -7
-22 -15 -7 -8 -20 -15 -29 -15 -9 0 -29 -14 -45 -30 -16 -17 -36 -30 -44 -30
-8 0 -31 -13 -52 -30 -21 -16 -41 -30 -45 -30 -16 0 -107 -89 -125 -123 -24
-45 -26 -90 -5 -107 8 -7 15 -22 15 -34 0 -24 40 -66 63 -66 8 0 20 -7 27 -15
9 -10 32 -15 75 -15 43 0 66 5 75 15 7 8 17 15 22 15 6 0 27 14 48 30 21 17
43 30 50 30 7 0 29 12 49 28 42 31 70 49 91 59 8 3 31 19 51 35 20 15 42 28
47 28 6 0 40 20 76 45 37 25 73 45 80 45 8 0 31 20 50 44 28 33 36 52 36 83 0
24 -6 46 -15 53 -8 7 -15 20 -15 29 0 21 -70 91 -92 91 -8 0 -21 7 -28 15 -7
8 -27 15 -45 15 -18 0 -38 -7 -45 -15z"/>
<path d="M590 3326 c-5 -13 -14 -27 -19 -31 -16 -10 -13 -81 4 -95 8 -7 15
-27 15 -45 0 -18 7 -38 15 -45 8 -7 15 -18 15 -26 0 -39 140 -203 212 -250 52
-33 126 -33 156 -1 19 20 22 35 22 100 0 60 -3 79 -15 83 -8 4 -15 17 -15 31
0 14 -13 45 -30 70 -16 24 -30 50 -30 57 0 8 -39 50 -86 95 l-85 81 -75 0
c-69 0 -75 -2 -84 -24z"/>
<path d="M4513 3663 c-38 -5 -43 -27 -14 -64 64 -83 111 -163 111 -190 0 -21
-15 -49 -45 -89 -25 -32 -45 -62 -45 -66 0 -4 -12 -20 -26 -35 -38 -40 -27
-59 36 -59 45 0 55 4 81 32 16 18 29 37 29 43 1 5 12 23 25 40 24 28 24 29 44
10 12 -10 21 -24 21 -31 0 -22 44 -82 65 -88 43 -12 105 -6 112 10 3 10 0 22
-8 28 -8 6 -18 19 -24 28 -5 9 -34 51 -62 93 -55 79 -64 109 -38 119 8 3 15
10 15 17 0 6 14 28 30 49 17 21 30 41 30 45 0 4 14 25 31 46 17 22 29 45 26
53 -6 15 -93 16 -117 1 -18 -11 -50 -58 -67 -97 -7 -16 -18 -28 -26 -28 -8 0
-33 29 -56 65 -23 36 -48 65 -56 65 -7 0 -19 2 -27 3 -7 2 -28 2 -45 0z"/>
<path d="M5097 3634 c-14 -15 -6 -42 18 -58 23 -15 25 -15 40 6 20 29 19 44
-1 27 -14 -11 -18 -10 -33 9 -9 13 -20 20 -24 16z"/>
<path d="M4220 3576 c0 -40 -3 -45 -30 -55 -26 -8 -30 -15 -30 -45 0 -29 4
-36 30 -45 l30 -10 0 -109 c0 -104 1 -110 26 -133 21 -19 36 -24 79 -24 68 0
87 16 77 64 -6 29 -12 34 -36 36 -39 1 -56 29 -56 92 0 61 23 93 66 93 23 0
25 3 22 37 -3 33 -7 37 -43 47 -38 11 -40 14 -43 54 l-3 42 -45 0 -44 0 0 -44z"/>
<path d="M3410 3511 c-50 -27 -74 -55 -58 -68 30 -23 74 -31 93 -17 42 31 117
-1 101 -42 -5 -13 -15 -15 -51 -10 -52 8 -112 -6 -149 -35 -22 -17 -26 -28
-26 -74 0 -47 4 -56 30 -79 35 -29 103 -42 143 -27 16 6 51 8 81 5 89 -11 96
-2 96 118 0 108 -14 172 -43 201 -48 48 -154 61 -217 28z m124 -220 c27 -30 6
-61 -42 -61 -40 0 -62 14 -62 40 0 41 73 56 104 21z"/>
<path d="M3901 3514 c-18 -13 -27 -14 -45 -4 -12 6 -40 10 -62 8 l-39 -3 -3
-239 c-3 -261 -4 -256 55 -256 40 0 46 10 50 83 1 33 5 62 8 65 3 3 20 0 38
-6 44 -16 77 -15 118 2 44 19 65 42 84 95 26 75 16 155 -27 211 -42 55 -130
77 -177 44z m67 -104 c78 -73 -9 -208 -94 -146 -27 20 -26 132 1 152 27 20 68
17 93 -6z"/>
<path d="M3557 2863 c-4 -3 -7 -287 -7 -630 l0 -623 633 2 632 3 0 625 0 625
-626 3 c-344 1 -629 -1 -632 -5z m378 -221 c65 -32 265 -214 265 -240 0 -18
33 -22 56 -7 12 8 46 36 74 62 97 90 125 114 173 150 26 21 47 41 47 45 0 4
14 8 30 8 26 0 30 -4 30 -26 0 -26 -38 -82 -95 -140 -31 -33 -120 -128 -168
-180 l-27 -31 68 -79 c37 -43 83 -99 102 -124 19 -25 37 -47 40 -50 16 -16 96
-137 109 -167 5 -11 15 -24 20 -28 6 -3 11 -26 11 -51 0 -40 -2 -44 -24 -44
-18 0 -49 28 -124 113 -148 168 -290 307 -313 307 -4 0 -18 -17 -31 -37 -12
-21 -48 -67 -78 -103 -31 -36 -66 -82 -78 -102 -63 -103 -149 -128 -216 -64
-41 38 -47 76 -20 132 15 31 91 104 108 104 15 0 216 158 216 170 0 13 -140
102 -237 150 -117 60 -163 106 -163 166 0 45 27 79 70 87 39 7 122 -4 155 -21z"/>
</g>
</svg>
