<?xml version="1.0" standalone="no"?>
<!DOCTYPE svg PUBLIC "-//W3C//DTD SVG 20010904//EN"
 "http://www.w3.org/TR/2001/REC-SVG-20010904/DTD/svg10.dtd">
<svg version="1.0" xmlns="http://www.w3.org/2000/svg"
 width="600.000000pt" height="600.000000pt" viewBox="0 0 600.000000 600.000000"
 preserveAspectRatio="xMidYMid meet">
<metadata>
Created by potrace 1.10, written by Peter Selinger 2001-2011
</metadata>
<g transform="translate(0.000000,600.000000) scale(0.100000,-0.100000)"
fill="#ffffff" stroke="none">
<path d="M2000 4835 c-8 -9 -30 -15 -60 -15 -30 0 -52 -6 -60 -15 -7 -8 -29
-15 -50 -15 -24 0 -40 -5 -44 -15 -3 -9 -18 -15 -39 -15 -19 0 -40 -7 -47 -15
-7 -8 -20 -15 -30 -15 -10 0 -23 -7 -30 -15 -7 -8 -20 -15 -30 -15 -10 0 -23
-7 -30 -15 -7 -8 -20 -15 -30 -15 -10 0 -23 -7 -30 -15 -7 -8 -17 -15 -22 -15
-6 0 -27 -13 -48 -30 -21 -16 -42 -30 -47 -30 -5 0 -41 -28 -79 -63 -39 -34
-84 -73 -102 -85 -17 -13 -66 -64 -108 -115 -43 -51 -84 -96 -91 -100 -7 -4
-13 -14 -13 -22 0 -8 -21 -46 -47 -85 -45 -65 -51 -70 -84 -70 -20 0 -42 -7
-49 -15 -7 -8 -23 -15 -35 -15 -12 0 -28 -7 -35 -15 -7 -8 -18 -15 -25 -15 -7
0 -18 -7 -25 -15 -7 -8 -20 -15 -29 -15 -20 0 -211 -194 -211 -214 0 -7 -7
-19 -15 -26 -8 -7 -15 -20 -15 -30 0 -10 -7 -23 -15 -30 -8 -7 -15 -23 -15
-35 0 -12 -7 -28 -15 -35 -9 -7 -15 -29 -15 -55 0 -26 -6 -48 -15 -55 -22 -18
-22 -242 0 -260 9 -8 15 -29 15 -55 0 -29 5 -45 15 -49 8 -3 15 -15 15 -27 0
-24 29 -80 48 -92 6 -4 12 -15 12 -24 0 -8 13 -32 30 -53 16 -21 30 -42 30
-48 0 -15 228 -232 244 -232 7 0 19 -7 26 -15 7 -8 20 -15 30 -15 10 0 23 -7
30 -15 7 -8 27 -15 45 -15 18 0 38 -7 45 -15 10 -12 45 -15 200 -15 155 0 190
3 200 15 7 8 25 15 40 15 15 0 33 7 40 15 7 8 20 15 30 15 10 0 23 7 30 15 7
8 20 15 30 15 9 0 30 13 46 30 16 16 37 30 47 30 10 0 20 7 23 15 4 8 12 15
20 15 12 0 14 -110 14 -709 0 -618 2 -710 15 -721 8 -7 15 -20 15 -29 0 -24
54 -80 94 -96 19 -8 37 -19 41 -25 4 -6 88 -10 226 -10 l220 0 69 70 c59 59
70 75 70 103 0 19 7 40 15 47 13 11 15 114 15 819 l0 807 37 36 c21 20 45 38
54 40 15 3 130 101 203 174 48 47 156 172 156 179 0 4 14 24 30 45 17 21 30
45 30 53 0 8 7 20 15 27 8 7 15 20 15 30 0 10 7 23 15 30 8 7 15 26 15 43 0
17 7 38 16 48 24 26 23 462 0 488 -9 10 -16 34 -16 53 0 20 -7 41 -15 48 -8 7
-15 23 -15 35 0 12 -7 28 -15 35 -8 7 -15 18 -15 25 0 29 -75 126 -177 228
-59 59 -111 107 -116 107 -5 0 -26 14 -47 30 -21 17 -47 30 -58 30 -11 0 -22
7 -26 15 -3 9 -18 15 -34 15 -16 0 -35 7 -42 15 -7 8 -29 15 -50 15 -21 0 -43
7 -50 15 -10 12 -43 15 -180 15 -137 0 -170 -3 -180 -15z m360 -90 c7 -8 27
-15 45 -15 18 0 38 -7 45 -15 7 -8 20 -15 30 -15 10 0 23 -7 30 -15 7 -8 18
-15 26 -15 43 0 304 -234 304 -272 0 -9 7 -21 15 -28 8 -7 15 -18 15 -25 0 -7
7 -18 15 -25 8 -7 15 -23 15 -37 0 -13 7 -26 15 -29 9 -4 15 -19 15 -39 0 -18
7 -38 15 -45 11 -9 15 -33 15 -89 1 -51 5 -82 15 -95 20 -26 20 -116 0 -142
-9 -12 -14 -43 -15 -85 0 -47 -4 -70 -15 -79 -8 -7 -15 -23 -15 -35 0 -12 -7
-28 -15 -35 -8 -7 -15 -20 -15 -30 0 -10 -7 -23 -15 -30 -8 -7 -15 -16 -15
-21 0 -37 -289 -354 -358 -392 -11 -7 -55 -36 -97 -64 -41 -29 -82 -53 -90
-53 -7 0 -17 -5 -20 -11 -4 -5 -17 -15 -28 -20 -12 -5 -42 -21 -66 -34 -24
-14 -53 -25 -63 -25 -10 0 -21 -7 -24 -15 -4 -8 -18 -15 -34 -15 -15 0 -33 -7
-40 -15 -7 -9 -29 -15 -55 -15 -26 0 -48 -6 -55 -15 -17 -21 -180 -22 -180 -1
0 8 7 16 15 20 11 4 15 21 15 58 1 31 7 61 15 72 21 27 21 149 0 166 -10 9
-15 32 -15 77 0 47 -4 65 -15 69 -10 4 -15 20 -15 45 0 26 -5 42 -15 45 -8 4
-15 16 -15 29 0 12 -7 28 -15 35 -8 7 -15 23 -15 35 0 13 -7 25 -15 29 -8 3
-15 14 -15 24 0 11 -7 25 -15 32 -8 7 -15 19 -15 27 0 8 -12 32 -27 52 -16 20
-32 43 -38 52 -24 39 -128 160 -151 176 -14 10 -43 33 -64 51 -20 17 -42 32
-47 32 -6 0 -16 7 -23 15 -7 8 -20 15 -30 15 -10 0 -23 7 -30 15 -7 8 -25 15
-40 15 -16 0 -30 7 -34 15 -4 11 -20 15 -55 15 -27 0 -52 4 -55 8 -3 5 8 22
24 37 17 16 30 36 30 45 0 9 62 77 138 153 138 138 183 177 199 177 5 0 22 14
38 30 16 17 34 30 41 30 7 0 33 14 57 30 25 17 49 30 55 30 5 0 15 7 22 15 7
8 23 15 35 15 12 0 28 7 35 15 7 8 23 15 35 15 12 0 28 7 35 15 7 8 27 15 45
15 18 0 38 7 45 15 8 10 30 15 62 15 34 0 50 4 54 15 5 13 35 15 179 15 141 0
175 -3 185 -15z m-1214 -780 c10 -8 29 -15 40 -15 12 0 27 -7 34 -15 7 -8 17
-15 23 -15 15 0 85 -60 162 -138 62 -61 175 -218 175 -240 0 -6 7 -12 15 -16
8 -3 15 -16 15 -30 0 -13 7 -26 15 -30 9 -3 15 -18 15 -34 0 -16 7 -35 15 -42
8 -7 15 -25 15 -40 0 -15 7 -33 15 -40 9 -8 15 -30 15 -59 0 -25 7 -55 15 -65
21 -27 20 -183 0 -210 -8 -11 -15 -30 -15 -42 0 -12 -7 -27 -15 -34 -8 -7 -15
-18 -15 -24 -1 -28 -123 -132 -208 -176 -23 -12 -45 -26 -48 -31 -3 -5 -19 -9
-35 -9 -17 0 -32 -6 -35 -15 -5 -13 -36 -15 -194 -15 -154 0 -190 3 -200 15
-7 8 -23 15 -35 15 -12 0 -28 7 -35 15 -7 8 -18 15 -25 15 -7 0 -18 7 -25 15
-7 8 -20 15 -29 15 -17 0 -164 142 -184 178 -7 12 -36 55 -64 97 -29 41 -53
82 -53 89 0 7 -7 19 -15 26 -8 7 -15 27 -15 45 0 18 -7 38 -15 45 -22 18 -22
265 0 274 10 3 15 19 15 45 0 25 5 41 15 45 8 3 15 15 15 27 0 11 14 41 30 66
17 24 30 48 30 52 0 17 132 151 149 151 10 0 30 14 46 30 16 17 39 30 51 30
12 0 27 7 34 15 7 8 25 15 40 15 15 0 33 7 40 15 18 21 198 21 226 0z m1212
-1812 l-3 -778 -40 0 c-33 0 -40 4 -45 25 l-6 25 -249 5 -250 5 -3 658 -2 657
79 0 c58 0 82 4 91 15 8 10 31 15 67 15 38 0 55 4 59 15 4 10 20 15 45 15 26
0 42 5 45 15 4 8 16 15 29 15 12 0 28 7 35 15 7 8 20 15 30 15 10 0 23 7 30
15 7 8 21 15 32 15 10 0 21 7 24 15 4 8 12 15 20 15 12 0 14 -117 12 -777z
m-150 -810 l-3 -28 -218 -3 c-187 -2 -218 0 -223 13 -4 8 -4 22 0 30 4 13 39
15 226 15 l221 0 -3 -27z m122 -43 c0 -20 -75 -79 -101 -80 -14 0 -34 -7 -45
-15 -27 -20 -211 -20 -238 0 -11 8 -37 15 -58 15 -27 0 -38 4 -38 15 0 13 26
15 170 15 l169 0 43 30 c42 28 98 40 98 20z"/>
<path d="M2540 4475 c-7 -8 -21 -15 -32 -15 -11 0 -40 -13 -65 -30 -24 -16
-49 -30 -55 -30 -5 0 -27 -13 -48 -30 -21 -16 -42 -30 -48 -30 -5 0 -15 -7
-22 -15 -7 -8 -20 -15 -29 -15 -9 0 -29 -14 -45 -30 -16 -17 -36 -30 -44 -30
-8 0 -31 -13 -52 -30 -21 -16 -41 -30 -45 -30 -16 0 -107 -89 -125 -123 -24
-45 -26 -90 -5 -107 8 -7 15 -22 15 -34 0 -24 40 -66 63 -66 8 0 20 -7 27 -15
9 -10 32 -15 75 -15 43 0 66 5 75 15 7 8 17 15 22 15 6 0 27 14 48 30 21 17
43 30 50 30 7 0 29 12 49 28 42 31 70 49 91 59 8 3 31 19 51 35 20 15 42 28
47 28 6 0 40 20 76 45 37 25 73 45 80 45 8 0 31 20 50 44 28 33 36 52 36 83 0
24 -6 46 -15 53 -8 7 -15 20 -15 29 0 21 -70 91 -92 91 -8 0 -21 7 -28 15 -7
8 -27 15 -45 15 -18 0 -38 -7 -45 -15z"/>
<path d="M590 3326 c-5 -13 -14 -27 -19 -31 -16 -10 -13 -81 4 -95 8 -7 15
-27 15 -45 0 -18 7 -38 15 -45 8 -7 15 -18 15 -26 0 -39 140 -203 212 -250 52
-33 126 -33 156 -1 19 20 22 35 22 100 0 60 -3 79 -15 83 -8 4 -15 17 -15 31
0 14 -13 45 -30 70 -16 24 -30 50 -30 57 0 8 -39 50 -86 95 l-85 81 -75 0
c-69 0 -75 -2 -84 -24z"/>
<path d="M3543 3902 c-34 -18 -67 -77 -61 -108 3 -18 16 -19 203 -19 190 0
200 1 204 20 6 31 -30 85 -71 106 -50 26 -226 26 -275 1z"/>
<path d="M3256 3712 c-67 -6 -131 -62 -153 -137 -18 -58 -18 -1804 -1 -1871
14 -52 61 -106 116 -131 33 -16 83 -18 431 -21 268 -2 408 1 440 8 90 22 105
22 198 5 97 -18 140 -16 285 14 142 30 343 196 418 346 l35 70 3 202 c4 227 2
234 -87 352 -23 30 -41 57 -41 61 0 28 -184 175 -255 205 -73 30 -176 46 -272
43 -50 -2 -95 1 -99 5 -5 5 -9 160 -10 345 0 185 -5 353 -9 372 -11 48 -43 88
-90 113 -39 20 -55 21 -455 21 -228 1 -433 0 -454 -2z m878 -101 c42 -35 46
-67 46 -418 0 -211 -4 -341 -10 -354 -6 -10 -26 -26 -46 -34 -19 -8 -68 -40
-110 -72 -84 -65 -149 -102 -179 -102 -12 -1 -54 -13 -95 -27 -41 -14 -91 -29
-110 -34 -85 -21 -150 -41 -215 -64 -38 -14 -80 -25 -91 -26 -41 0 -46 -20
-46 -196 0 -92 5 -171 10 -176 10 -10 80 5 117 24 10 6 61 21 111 34 51 12
100 27 111 32 10 6 38 12 63 14 45 3 45 3 48 -31 6 -63 -3 -78 -55 -90 -27 -6
-70 -18 -98 -26 -27 -8 -70 -20 -95 -26 -25 -6 -57 -18 -72 -25 -14 -8 -32
-14 -39 -14 -7 0 -33 -8 -57 -17 l-44 -16 4 -84 c3 -75 5 -84 28 -100 13 -10
34 -21 45 -25 11 -3 143 -6 294 -7 l274 -1 33 -25 c18 -14 35 -25 38 -25 13 0
46 -41 41 -50 -4 -6 -152 -10 -382 -10 -362 0 -377 1 -409 21 -22 13 -37 33
-44 57 -8 25 -10 322 -8 943 3 891 3 907 23 929 11 12 29 26 40 31 11 4 209 7
441 6 347 -2 424 -5 438 -16z m442 -882 c90 -32 112 -46 195 -126 59 -58 86
-93 114 -151 53 -109 53 -109 60 -187 15 -179 -39 -317 -176 -452 -117 -115
-201 -148 -374 -148 -114 0 -184 15 -267 58 -57 29 -201 186 -234 254 -65 139
-71 297 -17 423 38 87 53 108 127 187 96 102 164 139 296 164 69 12 209 1 276
-22z"/>
<path d="M4036 3191 c-4 -5 -25 -12 -49 -16 -23 -3 -51 -10 -62 -15 -11 -5
-56 -18 -100 -30 -44 -12 -89 -26 -100 -31 -20 -9 -97 -32 -165 -49 -130 -33
-280 -87 -280 -102 0 -4 -1 -80 -1 -168 0 -88 1 -165 1 -171 0 -16 72 -5 165
25 44 15 98 32 120 37 50 13 256 76 310 95 23 8 50 14 61 14 11 0 25 5 30 10
6 6 30 14 55 18 l44 8 3 192 c2 163 0 192 -12 192 -8 0 -17 -4 -20 -9z"/>
<path d="M4367 2622 c-15 -16 -17 -45 -17 -223 0 -271 -20 -249 231 -249 211
0 239 7 239 59 0 44 -28 51 -207 54 -89 1 -164 5 -168 9 -4 3 -6 75 -6 160 1
157 -7 199 -40 206 -8 1 -23 -6 -32 -16z"/>
</g>
</svg>
