<?xml version="1.0" standalone="no"?>
<!DOCTYPE svg PUBLIC "-//W3C//DTD SVG 20010904//EN"
 "http://www.w3.org/TR/2001/REC-SVG-20010904/DTD/svg10.dtd">
<svg version="1.0" xmlns="http://www.w3.org/2000/svg"
 width="600.000000pt" height="600.000000pt" viewBox="0 0 600.000000 600.000000"
 preserveAspectRatio="xMidYMid meet">
<metadata>
Created by potrace 1.10, written by Peter Selinger 2001-2011
</metadata>
<g transform="translate(0.000000,600.000000) scale(0.100000,-0.100000)"
fill="#ffffff" stroke="none">
<path d="M2000 4835 c-8 -9 -30 -15 -60 -15 -30 0 -52 -6 -60 -15 -7 -8 -29
-15 -50 -15 -24 0 -40 -5 -44 -15 -3 -9 -18 -15 -39 -15 -19 0 -40 -7 -47 -15
-7 -8 -20 -15 -30 -15 -10 0 -23 -7 -30 -15 -7 -8 -20 -15 -30 -15 -10 0 -23
-7 -30 -15 -7 -8 -20 -15 -30 -15 -10 0 -23 -7 -30 -15 -7 -8 -17 -15 -22 -15
-6 0 -27 -13 -48 -30 -21 -16 -42 -30 -47 -30 -5 0 -41 -28 -79 -63 -39 -34
-84 -73 -102 -85 -17 -13 -66 -64 -108 -115 -43 -51 -84 -96 -91 -100 -7 -4
-13 -14 -13 -22 0 -8 -21 -46 -47 -85 -45 -65 -51 -70 -84 -70 -20 0 -42 -7
-49 -15 -7 -8 -23 -15 -35 -15 -12 0 -28 -7 -35 -15 -7 -8 -18 -15 -25 -15 -7
0 -18 -7 -25 -15 -7 -8 -20 -15 -29 -15 -20 0 -211 -194 -211 -214 0 -7 -7
-19 -15 -26 -8 -7 -15 -20 -15 -30 0 -10 -7 -23 -15 -30 -8 -7 -15 -23 -15
-35 0 -12 -7 -28 -15 -35 -9 -7 -15 -29 -15 -55 0 -26 -6 -48 -15 -55 -22 -18
-22 -242 0 -260 9 -8 15 -29 15 -55 0 -29 5 -45 15 -49 8 -3 15 -15 15 -27 0
-24 29 -80 48 -92 6 -4 12 -15 12 -24 0 -8 13 -32 30 -53 16 -21 30 -42 30
-48 0 -15 228 -232 244 -232 7 0 19 -7 26 -15 7 -8 20 -15 30 -15 10 0 23 -7
30 -15 7 -8 27 -15 45 -15 18 0 38 -7 45 -15 10 -12 45 -15 200 -15 155 0 190
3 200 15 7 8 25 15 40 15 15 0 33 7 40 15 7 8 20 15 30 15 10 0 23 7 30 15 7
8 20 15 30 15 9 0 30 13 46 30 16 16 37 30 47 30 10 0 20 7 23 15 4 8 12 15
20 15 12 0 14 -110 14 -709 0 -618 2 -710 15 -721 8 -7 15 -20 15 -29 0 -24
54 -80 94 -96 19 -8 37 -19 41 -25 4 -6 88 -10 226 -10 l220 0 69 70 c59 59
70 75 70 103 0 19 7 40 15 47 13 11 15 114 15 819 l0 807 37 36 c21 20 45 38
54 40 15 3 130 101 203 174 48 47 156 172 156 179 0 4 14 24 30 45 17 21 30
45 30 53 0 8 7 20 15 27 8 7 15 20 15 30 0 10 7 23 15 30 8 7 15 26 15 43 0
17 7 38 16 48 24 26 23 462 0 488 -9 10 -16 34 -16 53 0 20 -7 41 -15 48 -8 7
-15 23 -15 35 0 12 -7 28 -15 35 -8 7 -15 18 -15 25 0 29 -75 126 -177 228
-59 59 -111 107 -116 107 -5 0 -26 14 -47 30 -21 17 -47 30 -58 30 -11 0 -22
7 -26 15 -3 9 -18 15 -34 15 -16 0 -35 7 -42 15 -7 8 -29 15 -50 15 -21 0 -43
7 -50 15 -10 12 -43 15 -180 15 -137 0 -170 -3 -180 -15z m360 -90 c7 -8 27
-15 45 -15 18 0 38 -7 45 -15 7 -8 20 -15 30 -15 10 0 23 -7 30 -15 7 -8 18
-15 26 -15 43 0 304 -234 304 -272 0 -9 7 -21 15 -28 8 -7 15 -18 15 -25 0 -7
7 -18 15 -25 8 -7 15 -23 15 -37 0 -13 7 -26 15 -29 9 -4 15 -19 15 -39 0 -18
7 -38 15 -45 11 -9 15 -33 15 -89 1 -51 5 -82 15 -95 20 -26 20 -116 0 -142
-9 -12 -14 -43 -15 -85 0 -47 -4 -70 -15 -79 -8 -7 -15 -23 -15 -35 0 -12 -7
-28 -15 -35 -8 -7 -15 -20 -15 -30 0 -10 -7 -23 -15 -30 -8 -7 -15 -16 -15
-21 0 -37 -289 -354 -358 -392 -11 -7 -55 -36 -97 -64 -41 -29 -82 -53 -90
-53 -7 0 -17 -5 -20 -11 -4 -5 -17 -15 -28 -20 -12 -5 -42 -21 -66 -34 -24
-14 -53 -25 -63 -25 -10 0 -21 -7 -24 -15 -4 -8 -18 -15 -34 -15 -15 0 -33 -7
-40 -15 -7 -9 -29 -15 -55 -15 -26 0 -48 -6 -55 -15 -17 -21 -180 -22 -180 -1
0 8 7 16 15 20 11 4 15 21 15 58 1 31 7 61 15 72 21 27 21 149 0 166 -10 9
-15 32 -15 77 0 47 -4 65 -15 69 -10 4 -15 20 -15 45 0 26 -5 42 -15 45 -8 4
-15 16 -15 29 0 12 -7 28 -15 35 -8 7 -15 23 -15 35 0 13 -7 25 -15 29 -8 3
-15 14 -15 24 0 11 -7 25 -15 32 -8 7 -15 19 -15 27 0 8 -12 32 -27 52 -16 20
-32 43 -38 52 -24 39 -128 160 -151 176 -14 10 -43 33 -64 51 -20 17 -42 32
-47 32 -6 0 -16 7 -23 15 -7 8 -20 15 -30 15 -10 0 -23 7 -30 15 -7 8 -25 15
-40 15 -16 0 -30 7 -34 15 -4 11 -20 15 -55 15 -27 0 -52 4 -55 8 -3 5 8 22
24 37 17 16 30 36 30 45 0 9 62 77 138 153 138 138 183 177 199 177 5 0 22 14
38 30 16 17 34 30 41 30 7 0 33 14 57 30 25 17 49 30 55 30 5 0 15 7 22 15 7
8 23 15 35 15 12 0 28 7 35 15 7 8 23 15 35 15 12 0 28 7 35 15 7 8 27 15 45
15 18 0 38 7 45 15 8 10 30 15 62 15 34 0 50 4 54 15 5 13 35 15 179 15 141 0
175 -3 185 -15z m-1214 -780 c10 -8 29 -15 40 -15 12 0 27 -7 34 -15 7 -8 17
-15 23 -15 15 0 85 -60 162 -138 62 -61 175 -218 175 -240 0 -6 7 -12 15 -16
8 -3 15 -16 15 -30 0 -13 7 -26 15 -30 9 -3 15 -18 15 -34 0 -16 7 -35 15 -42
8 -7 15 -25 15 -40 0 -15 7 -33 15 -40 9 -8 15 -30 15 -59 0 -25 7 -55 15 -65
21 -27 20 -183 0 -210 -8 -11 -15 -30 -15 -42 0 -12 -7 -27 -15 -34 -8 -7 -15
-18 -15 -24 -1 -28 -123 -132 -208 -176 -23 -12 -45 -26 -48 -31 -3 -5 -19 -9
-35 -9 -17 0 -32 -6 -35 -15 -5 -13 -36 -15 -194 -15 -154 0 -190 3 -200 15
-7 8 -23 15 -35 15 -12 0 -28 7 -35 15 -7 8 -18 15 -25 15 -7 0 -18 7 -25 15
-7 8 -20 15 -29 15 -17 0 -164 142 -184 178 -7 12 -36 55 -64 97 -29 41 -53
82 -53 89 0 7 -7 19 -15 26 -8 7 -15 27 -15 45 0 18 -7 38 -15 45 -22 18 -22
265 0 274 10 3 15 19 15 45 0 25 5 41 15 45 8 3 15 15 15 27 0 11 14 41 30 66
17 24 30 48 30 52 0 17 132 151 149 151 10 0 30 14 46 30 16 17 39 30 51 30
12 0 27 7 34 15 7 8 25 15 40 15 15 0 33 7 40 15 18 21 198 21 226 0z m1212
-1812 l-3 -778 -40 0 c-33 0 -40 4 -45 25 l-6 25 -249 5 -250 5 -3 658 -2 657
79 0 c58 0 82 4 91 15 8 10 31 15 67 15 38 0 55 4 59 15 4 10 20 15 45 15 26
0 42 5 45 15 4 8 16 15 29 15 12 0 28 7 35 15 7 8 20 15 30 15 10 0 23 7 30
15 7 8 21 15 32 15 10 0 21 7 24 15 4 8 12 15 20 15 12 0 14 -117 12 -777z
m-150 -810 l-3 -28 -218 -3 c-187 -2 -218 0 -223 13 -4 8 -4 22 0 30 4 13 39
15 226 15 l221 0 -3 -27z m122 -43 c0 -20 -75 -79 -101 -80 -14 0 -34 -7 -45
-15 -27 -20 -211 -20 -238 0 -11 8 -37 15 -58 15 -27 0 -38 4 -38 15 0 13 26
15 170 15 l169 0 43 30 c42 28 98 40 98 20z"/>
<path d="M2540 4475 c-7 -8 -21 -15 -32 -15 -11 0 -40 -13 -65 -30 -24 -16
-49 -30 -55 -30 -5 0 -27 -13 -48 -30 -21 -16 -42 -30 -48 -30 -5 0 -15 -7
-22 -15 -7 -8 -20 -15 -29 -15 -9 0 -29 -14 -45 -30 -16 -17 -36 -30 -44 -30
-8 0 -31 -13 -52 -30 -21 -16 -41 -30 -45 -30 -16 0 -107 -89 -125 -123 -24
-45 -26 -90 -5 -107 8 -7 15 -22 15 -34 0 -24 40 -66 63 -66 8 0 20 -7 27 -15
9 -10 32 -15 75 -15 43 0 66 5 75 15 7 8 17 15 22 15 6 0 27 14 48 30 21 17
43 30 50 30 7 0 29 12 49 28 42 31 70 49 91 59 8 3 31 19 51 35 20 15 42 28
47 28 6 0 40 20 76 45 37 25 73 45 80 45 8 0 31 20 50 44 28 33 36 52 36 83 0
24 -6 46 -15 53 -8 7 -15 20 -15 29 0 21 -70 91 -92 91 -8 0 -21 7 -28 15 -7
8 -27 15 -45 15 -18 0 -38 -7 -45 -15z"/>
<path d="M590 3326 c-5 -13 -14 -27 -19 -31 -16 -10 -13 -81 4 -95 8 -7 15
-27 15 -45 0 -18 7 -38 15 -45 8 -7 15 -18 15 -26 0 -39 140 -203 212 -250 52
-33 126 -33 156 -1 19 20 22 35 22 100 0 60 -3 79 -15 83 -8 4 -15 17 -15 31
0 14 -13 45 -30 70 -16 24 -30 50 -30 57 0 8 -39 50 -86 95 l-85 81 -75 0
c-69 0 -75 -2 -84 -24z"/>
<path d="M3450 4829 c-72 -42 -70 -25 -70 -558 0 -434 2 -479 17 -501 44 -63
8 -59 574 -60 509 0 517 0 543 21 57 45 56 38 56 544 0 518 2 503 -67 550
l-38 25 -490 0 c-475 0 -491 -1 -525 -21z m1041 -65 l24 -26 3 -451 c3 -406 1
-455 -14 -484 -9 -17 -26 -34 -38 -37 -11 -3 -238 -6 -503 -6 -470 0 -484 1
-503 20 -19 19 -20 33 -20 492 0 471 0 472 22 495 l21 23 492 0 492 0 24 -26z"/>
<path d="M3617 4693 c-4 -3 -7 -98 -7 -209 0 -177 -2 -205 -17 -216 -9 -7 -33
-30 -55 -51 -34 -34 -38 -43 -38 -87 0 -44 4 -53 38 -87 22 -21 46 -44 55 -51
12 -9 17 -28 17 -66 0 -33 5 -58 14 -65 21 -18 34 7 38 74 3 54 6 61 30 73 47
22 78 73 78 125 0 40 -5 51 -38 84 -22 21 -46 44 -55 51 -15 11 -17 38 -17
207 0 106 -3 200 -6 209 -6 16 -26 21 -37 9z m58 -493 c74 -46 44 -150 -43
-150 -44 0 -74 38 -70 90 3 37 8 45 38 61 42 23 36 23 75 -1z"/>
<path d="M3946 4678 c-3 -13 -6 -44 -6 -69 0 -42 -3 -49 -38 -72 -96 -67 -94
-177 4 -237 18 -12 34 -27 34 -33 1 -7 0 -98 0 -203 -1 -166 1 -193 16 -205
14 -11 18 -11 31 6 11 16 14 58 12 215 l-2 195 32 22 c55 37 71 65 71 125 0
47 -4 58 -27 80 -16 14 -41 38 -56 52 -23 22 -27 31 -22 59 12 61 -33 121 -49
65z m82 -201 c7 -8 15 -29 18 -48 8 -49 -25 -89 -74 -89 -91 0 -116 120 -32
153 21 9 72 -1 88 -16z"/>
<path d="M4291 4681 c-7 -12 -11 -97 -11 -220 0 -184 -1 -200 -18 -205 -10 -4
-32 -20 -48 -37 -25 -26 -29 -38 -29 -89 0 -48 4 -63 25 -85 14 -15 35 -31 48
-36 20 -8 22 -15 22 -73 0 -56 3 -67 21 -77 30 -16 38 -3 41 70 3 60 5 66 33
81 42 23 75 76 75 120 0 44 -33 97 -75 120 l-30 17 -5 214 c-4 190 -7 214 -22
217 -9 2 -21 -6 -27 -17z m82 -502 c35 -38 34 -63 -2 -100 -38 -37 -79 -38
-115 -3 -30 31 -33 69 -8 100 41 51 79 51 125 3z"/>
<path d="M3505 3518 c-3 -7 -4 -256 -3 -553 l3 -540 50 -3 c32 -2 53 1 60 10
5 7 29 22 52 33 24 11 43 23 43 27 0 3 12 11 28 17 15 6 41 20 57 31 17 11 39
24 50 29 11 5 37 21 58 35 21 14 45 26 53 26 8 0 17 7 20 15 4 8 14 15 23 15
9 0 22 5 28 11 12 12 46 33 80 48 11 5 24 15 28 20 3 6 15 11 26 11 11 0 22 7
25 15 4 8 14 15 24 15 11 0 22 5 25 11 4 5 17 15 28 20 12 5 36 18 52 29 17
11 39 24 50 30 101 52 120 68 120 101 0 23 -6 37 -20 44 -11 6 -38 22 -60 36
-22 14 -47 29 -55 32 -8 4 -28 16 -45 27 -16 11 -42 25 -57 31 -16 6 -28 14
-28 17 0 4 -19 16 -43 27 -23 11 -46 25 -50 32 -4 7 -16 13 -25 13 -10 0 -23
5 -29 11 -13 13 -30 23 -100 59 -26 14 -52 31 -56 37 -4 7 -14 13 -22 13 -8 0
-34 14 -58 30 -25 17 -49 30 -55 30 -5 0 -15 7 -22 15 -7 8 -20 15 -30 15 -10
0 -20 7 -24 15 -3 8 -12 15 -20 15 -8 0 -35 14 -59 30 -47 32 -113 41 -122 18z
m289 -324 c119 -118 216 -219 216 -223 0 -10 -442 -443 -447 -438 -3 3 -6 785
-3 870 0 21 35 -10 234 -209z m-14 141 c7 -8 21 -15 31 -15 11 0 19 -5 19 -10
0 -6 10 -15 23 -21 33 -15 67 -35 80 -48 6 -6 19 -11 28 -11 9 0 19 -7 23 -15
3 -8 14 -15 24 -15 10 0 23 -5 29 -11 13 -13 47 -33 81 -48 12 -6 22 -19 22
-29 0 -21 -63 -86 -78 -81 -12 5 -322 307 -322 314 0 11 28 4 40 -10z m545
-315 c7 0 18 -7 25 -15 7 -8 21 -15 31 -15 24 0 25 -26 2 -34 -24 -9 -62 -31
-76 -45 -6 -6 -19 -11 -29 -11 -10 0 -21 -7 -24 -15 -4 -8 -14 -15 -23 -15
-21 0 -101 80 -101 102 0 8 22 36 50 62 l50 46 41 -30 c23 -16 48 -30 54 -30z
m-206 -152 c41 -42 44 -58 12 -58 -10 0 -24 -7 -31 -15 -7 -8 -21 -15 -31 -15
-10 0 -22 -6 -26 -12 -4 -7 -26 -22 -48 -33 -22 -11 -44 -25 -48 -32 -4 -7
-17 -13 -27 -13 -10 0 -22 -5 -25 -11 -4 -5 -17 -15 -28 -20 -12 -5 -40 -20
-62 -33 -22 -13 -43 -22 -47 -20 -10 6 293 303 309 304 7 0 30 -19 52 -42z"/>
<path d="M3801 2264 c-38 -32 -39 -64 -6 -119 14 -22 28 -47 31 -55 4 -8 14
-23 22 -32 13 -15 9 -25 -30 -90 -24 -40 -47 -80 -51 -88 -4 -8 -16 -28 -27
-45 -11 -16 -24 -39 -30 -50 -5 -11 -16 -29 -22 -40 -7 -11 -28 -43 -45 -72
l-33 -53 -110 0 c-104 0 -112 -1 -135 -25 -31 -30 -32 -73 -4 -109 l20 -26
340 0 c381 0 367 -3 333 71 -9 22 -31 51 -47 65 -25 21 -39 24 -102 24 -41 0
-77 5 -80 10 -4 6 13 43 36 83 24 40 49 83 57 97 7 14 22 39 32 55 11 17 23
37 27 45 4 8 41 71 82 140 85 143 93 177 47 216 -42 37 -103 26 -125 -22 -6
-13 -15 -24 -20 -24 -11 0 -41 28 -41 39 0 10 -46 31 -70 31 -10 0 -32 -12
-49 -26z"/>
<path d="M4061 1894 c-40 -89 -29 -162 40 -269 10 -16 23 -39 29 -50 6 -11 16
-29 23 -40 149 -253 185 -309 204 -318 12 -5 38 -6 58 -3 29 6 39 14 51 41 16
40 10 64 -37 137 -17 26 -28 52 -24 58 3 5 34 10 69 10 75 0 106 24 106 82 0
61 -23 72 -164 78 l-121 5 -78 130 c-43 72 -83 141 -90 155 -21 42 -43 37 -66
-16z"/>
<path d="M3458 1353 c-48 -56 -15 -142 55 -143 40 0 61 14 86 55 27 47 27 69
-4 89 -34 22 -117 21 -137 -1z"/>
</g>
</svg>
