<?xml version="1.0" standalone="no"?>
<!DOCTYPE svg PUBLIC "-//W3C//DTD SVG 20010904//EN"
 "http://www.w3.org/TR/2001/REC-SVG-20010904/DTD/svg10.dtd">
<svg version="1.0" xmlns="http://www.w3.org/2000/svg"
 width="600.000000pt" height="600.000000pt" viewBox="0 0 600.000000 600.000000"
 preserveAspectRatio="xMidYMid meet">
<metadata>
Created by potrace 1.10, written by Peter Selinger 2001-2011
</metadata>
<g transform="translate(0.000000,600.000000) scale(0.100000,-0.100000)"
fill="#ffffff" stroke="none">
<path d="M1717 5402 c-25 -28 -21 -78 13 -149 29 -60 31 -73 32 -188 1 -94 -2
-132 -14 -157 -9 -18 -30 -62 -47 -98 -47 -96 -151 -199 -246 -244 -22 -10
-48 -22 -58 -27 -10 -5 -63 -19 -119 -30 -56 -11 -106 -23 -110 -25 -4 -3 -8
-20 -8 -39 0 -27 6 -37 35 -55 29 -18 40 -20 67 -11 18 5 53 13 78 16 72 12
155 46 245 101 63 39 166 142 191 191 10 21 25 42 32 46 6 4 12 16 12 26 0 9
7 26 15 37 8 10 15 29 15 42 0 13 7 36 15 52 22 42 23 298 1 341 -9 18 -16 42
-16 55 0 31 -30 95 -55 116 -26 23 -58 22 -78 0z"/>
<path d="M1490 5203 c-16 -20 -20 -36 -16 -57 18 -88 18 -136 2 -160 -9 -14
-16 -33 -16 -42 0 -24 -88 -111 -135 -134 -23 -11 -56 -20 -74 -20 -45 0 -91
-36 -91 -72 0 -44 34 -60 114 -52 36 4 71 13 77 20 6 8 18 14 25 14 39 0 174
117 174 151 0 9 7 22 15 29 8 7 15 22 15 34 1 11 7 32 15 46 17 30 20 163 4
208 -11 31 -47 62 -73 62 -8 0 -24 -12 -36 -27z"/>
<path d="M2344 5015 c-10 -8 -33 -15 -50 -15 -17 0 -37 -7 -44 -15 -7 -8 -23
-15 -35 -15 -12 0 -28 -7 -35 -15 -7 -8 -21 -15 -32 -15 -10 0 -21 -7 -24 -15
-4 -8 -12 -15 -19 -15 -7 0 -15 -7 -19 -15 -3 -8 -14 -15 -24 -15 -22 0 -242
-220 -242 -242 0 -9 -7 -21 -15 -28 -8 -7 -15 -21 -15 -32 0 -10 -7 -21 -15
-24 -8 -4 -15 -17 -15 -30 0 -14 -7 -27 -15 -30 -8 -4 -15 -16 -15 -29 0 -12
-7 -28 -15 -35 -8 -7 -15 -25 -15 -40 0 -15 -7 -33 -15 -40 -11 -9 -15 -32
-15 -79 -1 -42 -6 -73 -15 -85 -19 -25 -19 -63 0 -100 9 -17 15 -55 15 -96 0
-48 4 -71 15 -80 8 -7 15 -27 15 -44 0 -18 7 -41 15 -52 8 -10 15 -29 15 -40
0 -12 7 -27 15 -34 8 -7 15 -20 15 -30 0 -10 7 -23 15 -30 8 -7 15 -20 15 -29
0 -10 14 -30 30 -46 16 -16 30 -35 30 -44 0 -16 248 -271 265 -271 6 0 33 -20
62 -45 28 -25 58 -45 65 -45 8 0 24 -10 36 -23 18 -19 22 -35 22 -89 0 -35 7
-87 15 -114 12 -41 15 -161 15 -777 0 -637 2 -728 15 -733 8 -4 15 -14 15 -23
2 -53 130 -131 219 -131 31 -1 67 -7 81 -15 33 -19 78 -19 114 0 15 8 54 15
86 15 39 0 62 5 70 15 7 8 20 15 29 15 9 0 40 24 69 53 43 43 52 59 52 88 0
19 7 44 15 55 12 16 14 66 14 284 0 146 -4 339 -10 430 -5 91 -12 274 -16 408
-5 220 -4 242 11 242 9 0 16 -4 16 -9 0 -11 66 -51 84 -51 8 0 19 -7 26 -15 7
-8 27 -15 45 -15 18 0 38 -7 45 -15 18 -22 382 -22 400 0 7 8 27 15 45 15 18
0 38 7 45 15 7 8 19 15 27 15 8 0 32 14 53 30 21 17 42 30 47 30 15 0 203 195
203 211 0 9 13 29 30 45 16 16 30 39 30 50 0 12 7 24 15 28 9 3 15 19 15 41 0
22 6 38 15 41 10 4 15 20 15 49 0 29 5 45 15 49 13 4 15 33 15 174 0 139 -3
172 -15 182 -8 7 -15 27 -15 45 0 18 -7 38 -15 45 -8 7 -15 20 -15 30 0 10 -7
23 -15 30 -8 7 -15 17 -15 23 0 31 -211 247 -242 247 -10 0 -21 7 -24 15 -4 8
-17 15 -30 15 -14 0 -27 7 -30 15 -4 8 -18 15 -34 15 -21 0 -36 10 -59 39 -17
21 -31 45 -31 53 0 8 -13 27 -30 43 -16 16 -30 35 -30 43 0 18 -253 272 -271
272 -8 1 -34 21 -59 45 -25 25 -52 45 -60 45 -9 0 -29 14 -45 30 -16 17 -36
30 -46 30 -9 0 -22 7 -29 15 -7 8 -20 15 -30 15 -10 0 -23 7 -30 15 -7 8 -20
15 -30 15 -10 0 -23 7 -30 15 -7 8 -23 15 -35 15 -12 0 -28 7 -35 15 -7 8 -27
15 -45 15 -20 0 -35 6 -39 15 -4 11 -20 15 -54 15 -32 0 -54 5 -62 15 -18 22
-407 22 -436 0z m246 -60 c16 -9 55 -14 106 -15 63 0 83 -3 88 -15 4 -10 19
-15 49 -15 27 0 49 -6 57 -15 7 -8 25 -15 40 -15 16 0 30 -7 34 -15 3 -8 13
-15 23 -15 23 0 145 -61 156 -77 4 -7 15 -13 24 -13 8 0 32 -13 53 -30 21 -16
42 -30 46 -30 5 0 33 -23 62 -50 29 -28 57 -50 63 -50 14 0 189 -175 189 -189
0 -6 13 -25 29 -44 42 -47 101 -136 101 -152 0 -7 7 -18 15 -25 8 -7 15 -23
15 -35 0 -12 7 -28 15 -35 8 -7 15 -27 15 -45 0 -18 7 -38 15 -45 22 -18 22
-277 0 -306 -8 -10 -15 -31 -15 -45 0 -15 -7 -32 -15 -39 -8 -7 -15 -25 -15
-40 0 -15 -7 -33 -15 -40 -8 -7 -15 -20 -15 -30 0 -10 -7 -23 -15 -30 -8 -7
-15 -20 -15 -29 0 -10 -13 -30 -30 -46 -16 -16 -30 -36 -30 -45 0 -8 -48 -64
-107 -122 -113 -112 -154 -148 -171 -148 -5 0 -15 -7 -22 -15 -7 -8 -27 -15
-46 -15 -19 0 -37 -6 -42 -16 -6 -12 -23 -14 -73 -12 l-64 3 2 45 c13 294 17
341 29 351 8 6 14 17 14 24 0 7 7 18 16 25 22 19 15 84 -10 88 -24 5 -96 -65
-96 -94 0 -12 -7 -27 -15 -34 -13 -11 -15 -133 -17 -959 l-3 -946 -25 0 c-17
0 -26 6 -28 20 -2 11 -13 30 -25 42 -20 23 -24 23 -269 23 l-248 0 -1 558 c0
343 -4 578 -11 612 -6 30 -12 189 -15 352 -3 242 -7 299 -19 308 -10 9 -14 34
-14 85 0 52 -4 76 -15 85 -8 7 -15 27 -15 44 -1 45 -39 89 -75 84 -39 -4 -54
-31 -32 -56 9 -10 17 -27 17 -38 0 -10 7 -28 15 -38 9 -12 15 -42 15 -75 1
-33 7 -64 15 -75 11 -14 15 -46 15 -108 0 -86 -1 -88 -24 -88 -13 0 -30 7 -37
16 -8 9 -48 43 -90 74 -79 61 -209 194 -209 214 0 7 -12 23 -26 37 -14 13 -30
33 -35 44 -16 33 -36 66 -48 78 -6 6 -11 24 -11 39 0 16 -7 31 -15 34 -10 4
-15 20 -15 45 0 26 -5 42 -15 45 -11 5 -15 22 -15 69 0 43 -5 66 -15 75 -11 9
-15 32 -15 80 0 48 4 71 15 80 10 8 15 31 15 65 0 38 4 55 15 59 9 3 15 19 15
41 0 22 6 38 15 41 8 4 15 16 15 29 0 12 7 28 15 35 8 7 15 21 15 32 0 10 7
21 15 24 8 4 15 12 15 19 0 7 7 15 15 19 8 3 15 13 15 23 0 39 233 243 276
243 8 0 17 7 20 15 4 8 16 15 29 15 12 0 28 7 35 15 7 8 22 15 34 15 12 0 31
7 42 15 11 9 43 15 79 15 33 0 71 7 85 15 14 8 32 14 40 14 8 0 26 -6 40 -14z
m1299 -830 c33 -10 211 -184 211 -205 0 -10 7 -23 15 -30 8 -7 15 -18 15 -25
0 -7 7 -18 15 -25 8 -7 15 -23 15 -35 0 -12 7 -28 15 -35 12 -10 15 -43 15
-180 0 -137 -3 -170 -15 -180 -8 -7 -15 -27 -15 -45 0 -18 -7 -38 -15 -45 -8
-7 -15 -20 -15 -30 0 -10 -7 -23 -15 -30 -8 -7 -15 -19 -15 -27 0 -8 -13 -32
-30 -53 -16 -21 -30 -42 -30 -46 0 -11 -132 -144 -143 -144 -5 0 -26 -13 -47
-30 -21 -16 -45 -30 -54 -30 -9 0 -19 -7 -22 -15 -4 -8 -16 -15 -29 -15 -12 0
-28 -7 -35 -15 -10 -12 -46 -15 -200 -15 -158 0 -189 2 -194 15 -3 9 -18 15
-39 15 -19 0 -40 7 -47 15 -7 8 -23 15 -36 15 -15 0 -24 6 -24 15 0 9 9 15 24
15 13 0 29 7 36 15 7 8 29 15 50 15 21 0 43 7 50 15 7 8 20 15 30 15 10 0 23
7 30 15 7 8 16 15 21 15 19 0 153 122 211 192 34 40 67 77 75 81 7 4 13 17 13
27 0 10 5 22 11 25 5 4 15 17 20 28 5 12 20 40 34 62 13 22 24 50 25 63 0 12
7 25 15 28 8 4 15 18 15 34 0 16 7 30 15 34 10 3 15 19 15 44 0 23 6 45 15 52
12 10 15 41 15 162 0 123 -3 150 -15 154 -10 4 -15 20 -15 49 0 30 -5 45 -16
49 -8 3 -12 11 -8 17 5 9 10 8 18 -3 6 -8 22 -19 35 -23z m-1349 -2573 c0 -15
5 -33 12 -40 17 -17 -8 -24 -73 -20 -51 3 -54 5 -57 31 -6 49 3 57 63 57 54 0
55 -1 55 -28z m358 1 c5 -34 -31 -63 -77 -63 l-39 0 0 45 0 46 56 -3 c50 -3
57 -6 60 -25z m92 -73 c0 -5 -17 -25 -37 -45 -32 -29 -45 -35 -84 -35 -29 0
-51 -6 -59 -15 -9 -11 -33 -15 -92 -15 -57 0 -84 4 -94 15 -10 9 -34 15 -65
15 -37 0 -49 4 -49 15 0 13 28 15 188 15 l188 0 29 30 c27 28 75 41 75 20z"/>
<path d="M2142 4437 c-31 -33 -31 -105 1 -135 33 -31 105 -31 135 1 31 33 31
105 -1 135 -33 31 -105 31 -135 -1z"/>
<path d="M2660 4325 c-7 -8 -26 -15 -42 -15 -39 0 -108 -66 -108 -103 0 -13
-7 -30 -15 -37 -12 -10 -15 -45 -15 -194 -1 -138 -4 -187 -15 -206 -20 -35
-20 -188 0 -214 8 -11 15 -32 15 -46 0 -31 66 -100 95 -100 11 0 29 -7 39 -15
25 -19 50 -19 66 0 7 8 29 15 49 15 30 0 44 8 74 38 20 21 37 43 37 49 0 6 7
16 15 23 12 10 15 42 15 170 0 117 4 167 15 193 11 27 15 75 15 180 0 116 -3
147 -15 157 -8 7 -15 18 -15 25 0 17 -64 65 -88 65 -11 0 -25 7 -32 15 -7 8
-27 15 -45 15 -18 0 -38 -7 -45 -15z"/>
<path d="M2593 1228 c-10 -3 -29 -7 -43 -7 -31 -1 -153 -52 -223 -92 -66 -39
-201 -175 -211 -212 -11 -45 12 -82 54 -84 42 -3 53 5 109 79 43 58 107 107
201 154 43 21 70 27 163 31 136 7 195 -4 302 -57 81 -40 149 -98 233 -198 48
-58 68 -63 100 -29 42 44 28 86 -58 180 -111 120 -248 202 -381 227 -76 14
-220 19 -246 8z"/>
<path d="M2658 955 c-2 -2 -22 -7 -44 -9 -52 -7 -129 -43 -182 -85 -36 -28
-42 -38 -42 -71 0 -29 6 -41 25 -54 36 -24 53 -20 109 22 28 21 62 45 76 52
37 20 147 17 204 -5 47 -18 113 -71 133 -108 14 -26 84 -34 106 -12 34 33 22
70 -45 139 -85 85 -162 124 -261 130 -41 2 -77 3 -79 1z"/>
</g>
</svg>
