<?xml version="1.0" standalone="no"?>
<!DOCTYPE svg PUBLIC "-//W3C//DTD SVG 20010904//EN"
 "http://www.w3.org/TR/2001/REC-SVG-20010904/DTD/svg10.dtd">
<svg version="1.0" xmlns="http://www.w3.org/2000/svg"
 width="600.000000pt" height="600.000000pt" viewBox="0 0 600.000000 600.000000"
 preserveAspectRatio="xMidYMid meet">
<metadata>
Created by potrace 1.10, written by Peter Selinger 2001-2011
</metadata>
<g transform="translate(0.000000,600.000000) scale(0.100000,-0.100000)"
fill="#ffffff" stroke="none">
<path d="M3191 5084 c-47 -53 -75 -101 -109 -189 -111 -282 -20 -612 223 -808
85 -68 230 -137 288 -137 41 0 48 3 60 28 23 43 -5 92 -53 92 -14 0 -35 7 -46
15 -10 8 -25 15 -32 15 -28 0 -152 83 -199 133 -96 102 -148 217 -159 354 -6
77 7 216 24 250 5 10 17 36 28 58 10 22 30 56 44 75 49 68 52 77 36 109 -27
52 -63 54 -105 5z"/>
<path d="M3417 4904 c-47 -47 -97 -182 -97 -263 0 -25 8 -71 18 -101 38 -117
93 -192 188 -255 66 -44 107 -45 132 -3 14 24 14 30 2 54 -8 14 -22 29 -30 33
-34 13 -97 66 -126 105 -73 97 -72 234 2 345 28 43 24 66 -18 95 -31 22 -41
20 -71 -10z"/>
<path d="M2000 4835 c-8 -9 -30 -15 -60 -15 -30 0 -52 -6 -60 -15 -7 -8 -29
-15 -50 -15 -24 0 -40 -5 -44 -15 -3 -9 -18 -15 -39 -15 -19 0 -40 -7 -47 -15
-7 -8 -20 -15 -30 -15 -10 0 -23 -7 -30 -15 -7 -8 -20 -15 -30 -15 -10 0 -23
-7 -30 -15 -7 -8 -20 -15 -30 -15 -10 0 -23 -7 -30 -15 -7 -8 -17 -15 -22 -15
-6 0 -27 -13 -48 -30 -21 -16 -42 -30 -47 -30 -5 0 -41 -28 -79 -63 -39 -34
-84 -73 -102 -85 -17 -13 -66 -64 -108 -115 -43 -51 -84 -96 -91 -100 -7 -4
-13 -14 -13 -22 0 -8 -21 -46 -47 -85 -45 -65 -51 -70 -84 -70 -20 0 -42 -7
-49 -15 -7 -8 -23 -15 -35 -15 -12 0 -28 -7 -35 -15 -7 -8 -18 -15 -25 -15 -7
0 -18 -7 -25 -15 -7 -8 -20 -15 -29 -15 -20 0 -211 -194 -211 -214 0 -7 -7
-19 -15 -26 -8 -7 -15 -20 -15 -30 0 -10 -7 -23 -15 -30 -8 -7 -15 -23 -15
-35 0 -12 -7 -28 -15 -35 -9 -7 -15 -29 -15 -55 0 -26 -6 -48 -15 -55 -22 -18
-22 -242 0 -260 9 -8 15 -29 15 -55 0 -29 5 -45 15 -49 8 -3 15 -15 15 -27 0
-24 29 -80 48 -92 6 -4 12 -15 12 -24 0 -8 13 -32 30 -53 16 -21 30 -42 30
-48 0 -15 228 -232 244 -232 7 0 19 -7 26 -15 7 -8 20 -15 30 -15 10 0 23 -7
30 -15 7 -8 27 -15 45 -15 18 0 38 -7 45 -15 10 -12 45 -15 200 -15 155 0 190
3 200 15 7 8 25 15 40 15 15 0 33 7 40 15 7 8 20 15 30 15 10 0 23 7 30 15 7
8 20 15 30 15 9 0 30 13 46 30 16 16 37 30 47 30 10 0 20 7 23 15 4 8 12 15
20 15 12 0 14 -110 14 -709 0 -618 2 -710 15 -721 8 -7 15 -20 15 -29 0 -24
54 -80 94 -96 19 -8 37 -19 41 -25 4 -6 88 -10 226 -10 l220 0 69 70 c59 59
70 75 70 103 0 19 7 40 15 47 13 11 15 114 15 819 l0 807 37 36 c21 20 45 38
54 40 15 3 130 101 203 174 48 47 156 172 156 179 0 4 14 24 30 45 17 21 30
45 30 53 0 8 7 20 15 27 8 7 15 20 15 30 0 10 7 23 15 30 8 7 15 26 15 43 0
17 7 38 16 48 24 26 23 462 0 488 -9 10 -16 34 -16 53 0 20 -7 41 -15 48 -8 7
-15 23 -15 35 0 12 -7 28 -15 35 -8 7 -15 18 -15 25 0 29 -75 126 -177 228
-59 59 -111 107 -116 107 -5 0 -26 14 -47 30 -21 17 -47 30 -58 30 -11 0 -22
7 -26 15 -3 9 -18 15 -34 15 -16 0 -35 7 -42 15 -7 8 -29 15 -50 15 -21 0 -43
7 -50 15 -10 12 -43 15 -180 15 -137 0 -170 -3 -180 -15z m360 -90 c7 -8 27
-15 45 -15 18 0 38 -7 45 -15 7 -8 20 -15 30 -15 10 0 23 -7 30 -15 7 -8 18
-15 26 -15 43 0 304 -234 304 -272 0 -9 7 -21 15 -28 8 -7 15 -18 15 -25 0 -7
7 -18 15 -25 8 -7 15 -23 15 -37 0 -13 7 -26 15 -29 9 -4 15 -19 15 -39 0 -18
7 -38 15 -45 11 -9 15 -33 15 -89 1 -51 5 -82 15 -95 20 -26 20 -116 0 -142
-9 -12 -14 -43 -15 -85 0 -47 -4 -70 -15 -79 -8 -7 -15 -23 -15 -35 0 -12 -7
-28 -15 -35 -8 -7 -15 -20 -15 -30 0 -10 -7 -23 -15 -30 -8 -7 -15 -16 -15
-21 0 -37 -289 -354 -358 -392 -11 -7 -55 -36 -97 -64 -41 -29 -82 -53 -90
-53 -7 0 -17 -5 -20 -11 -4 -5 -17 -15 -28 -20 -12 -5 -42 -21 -66 -34 -24
-14 -53 -25 -63 -25 -10 0 -21 -7 -24 -15 -4 -8 -18 -15 -34 -15 -15 0 -33 -7
-40 -15 -7 -9 -29 -15 -55 -15 -26 0 -48 -6 -55 -15 -17 -21 -180 -22 -180 -1
0 8 7 16 15 20 11 4 15 21 15 58 1 31 7 61 15 72 21 27 21 149 0 166 -10 9
-15 32 -15 77 0 47 -4 65 -15 69 -10 4 -15 20 -15 45 0 26 -5 42 -15 45 -8 4
-15 16 -15 29 0 12 -7 28 -15 35 -8 7 -15 23 -15 35 0 13 -7 25 -15 29 -8 3
-15 14 -15 24 0 11 -7 25 -15 32 -8 7 -15 19 -15 27 0 8 -12 32 -27 52 -16 20
-32 43 -38 52 -24 39 -128 160 -151 176 -14 10 -43 33 -64 51 -20 17 -42 32
-47 32 -6 0 -16 7 -23 15 -7 8 -20 15 -30 15 -10 0 -23 7 -30 15 -7 8 -25 15
-40 15 -16 0 -30 7 -34 15 -4 11 -20 15 -55 15 -27 0 -52 4 -55 8 -3 5 8 22
24 37 17 16 30 36 30 45 0 9 62 77 138 153 138 138 183 177 199 177 5 0 22 14
38 30 16 17 34 30 41 30 7 0 33 14 57 30 25 17 49 30 55 30 5 0 15 7 22 15 7
8 23 15 35 15 12 0 28 7 35 15 7 8 23 15 35 15 12 0 28 7 35 15 7 8 27 15 45
15 18 0 38 7 45 15 8 10 30 15 62 15 34 0 50 4 54 15 5 13 35 15 179 15 141 0
175 -3 185 -15z m-1214 -780 c10 -8 29 -15 40 -15 12 0 27 -7 34 -15 7 -8 17
-15 23 -15 15 0 85 -60 162 -138 62 -61 175 -218 175 -240 0 -6 7 -12 15 -16
8 -3 15 -16 15 -30 0 -13 7 -26 15 -30 9 -3 15 -18 15 -34 0 -16 7 -35 15 -42
8 -7 15 -25 15 -40 0 -15 7 -33 15 -40 9 -8 15 -30 15 -59 0 -25 7 -55 15 -65
21 -27 20 -183 0 -210 -8 -11 -15 -30 -15 -42 0 -12 -7 -27 -15 -34 -8 -7 -15
-18 -15 -24 -1 -28 -123 -132 -208 -176 -23 -12 -45 -26 -48 -31 -3 -5 -19 -9
-35 -9 -17 0 -32 -6 -35 -15 -5 -13 -36 -15 -194 -15 -154 0 -190 3 -200 15
-7 8 -23 15 -35 15 -12 0 -28 7 -35 15 -7 8 -18 15 -25 15 -7 0 -18 7 -25 15
-7 8 -20 15 -29 15 -17 0 -164 142 -184 178 -7 12 -36 55 -64 97 -29 41 -53
82 -53 89 0 7 -7 19 -15 26 -8 7 -15 27 -15 45 0 18 -7 38 -15 45 -22 18 -22
265 0 274 10 3 15 19 15 45 0 25 5 41 15 45 8 3 15 15 15 27 0 11 14 41 30 66
17 24 30 48 30 52 0 17 132 151 149 151 10 0 30 14 46 30 16 17 39 30 51 30
12 0 27 7 34 15 7 8 25 15 40 15 15 0 33 7 40 15 18 21 198 21 226 0z m1212
-1812 l-3 -778 -40 0 c-33 0 -40 4 -45 25 l-6 25 -249 5 -250 5 -3 658 -2 657
79 0 c58 0 82 4 91 15 8 10 31 15 67 15 38 0 55 4 59 15 4 10 20 15 45 15 26
0 42 5 45 15 4 8 16 15 29 15 12 0 28 7 35 15 7 8 20 15 30 15 10 0 23 7 30
15 7 8 21 15 32 15 10 0 21 7 24 15 4 8 12 15 20 15 12 0 14 -117 12 -777z
m-150 -810 l-3 -28 -218 -3 c-187 -2 -218 0 -223 13 -4 8 -4 22 0 30 4 13 39
15 226 15 l221 0 -3 -27z m122 -43 c0 -20 -75 -79 -101 -80 -14 0 -34 -7 -45
-15 -27 -20 -211 -20 -238 0 -11 8 -37 15 -58 15 -27 0 -38 4 -38 15 0 13 26
15 170 15 l169 0 43 30 c42 28 98 40 98 20z"/>
<path d="M2540 4475 c-7 -8 -21 -15 -32 -15 -11 0 -40 -13 -65 -30 -24 -16
-49 -30 -55 -30 -5 0 -27 -13 -48 -30 -21 -16 -42 -30 -48 -30 -5 0 -15 -7
-22 -15 -7 -8 -20 -15 -29 -15 -9 0 -29 -14 -45 -30 -16 -17 -36 -30 -44 -30
-8 0 -31 -13 -52 -30 -21 -16 -41 -30 -45 -30 -16 0 -107 -89 -125 -123 -24
-45 -26 -90 -5 -107 8 -7 15 -22 15 -34 0 -24 40 -66 63 -66 8 0 20 -7 27 -15
9 -10 32 -15 75 -15 43 0 66 5 75 15 7 8 17 15 22 15 6 0 27 14 48 30 21 17
43 30 50 30 7 0 29 12 49 28 42 31 70 49 91 59 8 3 31 19 51 35 20 15 42 28
47 28 6 0 40 20 76 45 37 25 73 45 80 45 8 0 31 20 50 44 28 33 36 52 36 83 0
24 -6 46 -15 53 -8 7 -15 20 -15 29 0 21 -70 91 -92 91 -8 0 -21 7 -28 15 -7
8 -27 15 -45 15 -18 0 -38 -7 -45 -15z"/>
<path d="M590 3326 c-5 -13 -14 -27 -19 -31 -16 -10 -13 -81 4 -95 8 -7 15
-27 15 -45 0 -18 7 -38 15 -45 8 -7 15 -18 15 -26 0 -39 140 -203 212 -250 52
-33 126 -33 156 -1 19 20 22 35 22 100 0 60 -3 79 -15 83 -8 4 -15 17 -15 31
0 14 -13 45 -30 70 -16 24 -30 50 -30 57 0 8 -39 50 -86 95 l-85 81 -75 0
c-69 0 -75 -2 -84 -24z"/>
<path d="M3740 4829 c-56 -25 -74 -41 -100 -91 -27 -51 -26 -128 1 -184 13
-29 93 -113 240 -255 120 -116 219 -218 219 -226 0 -8 -7 -27 -15 -41 -35 -61
-45 -224 -21 -322 3 -14 2 -31 -3 -39 -8 -12 -14 -12 -43 0 -46 19 -158 15
-195 -7 -84 -53 -116 -109 -117 -209 0 -52 5 -78 19 -100 32 -51 67 -84 109
-104 23 -10 85 -39 138 -65 54 -25 100 -46 102 -46 3 0 58 -25 123 -56 65 -31
138 -65 163 -76 25 -11 52 -24 60 -29 8 -5 22 -12 30 -15 112 -45 140 -67 251
-195 113 -132 161 -169 216 -169 35 0 98 31 124 61 18 21 19 44 19 680 0 647
0 658 -21 713 -17 44 -33 64 -75 96 -29 22 -55 40 -58 40 -3 0 -31 17 -63 39
-59 39 -200 131 -393 255 -58 38 -124 81 -148 97 -23 16 -45 29 -48 29 -4 0
-23 14 -44 30 -21 17 -40 30 -43 30 -6 0 -69 40 -157 100 -119 80 -187 95
-270 59z m168 -141 c32 -24 66 -48 77 -55 72 -43 398 -253 503 -324 23 -16 45
-29 48 -29 6 0 67 -42 74 -51 3 -4 21 -15 40 -26 19 -10 88 -53 152 -96 103
-67 118 -80 123 -109 3 -18 4 -305 3 -638 l-3 -605 -21 -3 c-14 -2 -29 7 -42
23 -12 15 -50 59 -86 98 -35 40 -74 85 -86 100 -13 16 -60 45 -109 68 -47 22
-141 67 -208 100 -67 32 -124 59 -127 59 -6 0 -190 84 -229 105 -16 8 -34 15
-42 15 -7 0 -18 7 -25 15 -7 8 -20 15 -29 15 -9 0 -33 14 -54 31 -33 27 -37
35 -37 78 0 39 5 52 28 74 43 41 97 37 205 -19 16 -8 35 -14 42 -14 7 0 26 -6
42 -14 85 -41 104 -48 137 -49 35 -1 45 7 176 144 162 168 166 177 98 243 -99
95 -532 511 -638 612 -168 160 -180 174 -180 208 0 40 44 86 83 86 18 0 49
-15 85 -42z m425 -822 c81 -79 105 -108 100 -122 -6 -16 -119 -135 -155 -162
-14 -11 -21 -11 -42 3 -34 22 -45 66 -52 210 -6 122 2 175 28 175 7 -1 61 -47
121 -104z"/>
</g>
</svg>
