<?xml version="1.0" standalone="no"?>
<!DOCTYPE svg PUBLIC "-//W3C//DTD SVG 20010904//EN"
 "http://www.w3.org/TR/2001/REC-SVG-20010904/DTD/svg10.dtd">
<svg version="1.0" xmlns="http://www.w3.org/2000/svg"
 width="600.000000pt" height="600.000000pt" viewBox="0 0 600.000000 600.000000"
 preserveAspectRatio="xMidYMid meet">
<metadata>
Created by potrace 1.10, written by Peter Selinger 2001-2011
</metadata>
<g transform="translate(0.000000,600.000000) scale(0.100000,-0.100000)"
fill="#ffffff" stroke="none">
<path d="M1181 4826 l-22 -24 28 -19 c15 -11 44 -23 64 -26 44 -6 130 -61 200
-125 118 -109 137 -125 204 -176 102 -77 136 -91 225 -91 68 0 81 3 140 37 36
20 79 49 96 65 16 15 81 73 142 128 250 223 303 221 565 -19 97 -88 155 -133
228 -178 49 -29 61 -32 134 -33 114 0 166 29 337 187 172 158 251 208 329 208
62 0 158 -62 295 -191 163 -152 259 -209 354 -209 72 1 115 17 192 73 67 49
70 51 199 169 115 105 195 158 239 158 24 0 80 36 80 51 0 5 -16 17 -35 26
-29 14 -42 15 -88 4 -58 -13 -141 -63 -209 -126 -128 -119 -240 -213 -280
-232 -31 -16 -63 -23 -103 -23 -85 0 -126 28 -355 239 -146 136 -257 174 -387
136 -72 -22 -149 -79 -310 -234 -34 -33 -131 -104 -165 -122 -47 -24 -137 -25
-181 -3 -45 23 -116 81 -230 186 -122 113 -133 122 -198 155 -46 23 -67 27
-139 28 -76 0 -91 -3 -139 -30 -43 -24 -221 -168 -241 -194 -16 -22 -146 -123
-179 -141 -50 -25 -139 -27 -184 -4 -50 26 -182 135 -306 252 -41 39 -123 92
-165 106 -67 23 -108 21 -135 -8z"/>
<path d="M1192 4134 c-43 -30 -17 -65 63 -85 70 -17 130 -61 300 -217 116
-107 179 -148 255 -168 130 -33 216 8 431 207 180 167 261 204 362 165 56 -21
84 -42 222 -166 200 -179 292 -230 392 -215 93 14 161 57 319 201 185 170 216
189 309 189 65 0 74 -3 128 -39 56 -38 172 -136 212 -180 34 -38 137 -113 195
-142 78 -39 163 -40 241 -2 58 29 158 108 269 212 95 90 157 132 235 158 62
20 70 26 73 50 3 24 -1 28 -33 34 -103 19 -178 -26 -435 -262 -57 -53 -98 -81
-167 -114 -54 -26 -73 -25 -136 4 -63 28 -119 72 -257 200 -144 134 -203 168
-300 174 -131 8 -183 -18 -348 -170 -201 -184 -297 -242 -371 -219 -41 12
-142 75 -182 114 -86 83 -227 202 -276 234 -57 37 -59 38 -158 38 -85 0 -106
-3 -143 -23 -47 -25 -151 -110 -222 -180 -69 -69 -190 -157 -244 -177 -47 -18
-50 -18 -99 -1 -69 25 -125 65 -233 167 -149 140 -235 200 -312 217 -67 15
-63 15 -90 -4z"/>
<path d="M2835 3520 c-3 -5 -21 -10 -38 -10 -18 0 -45 -7 -61 -15 -15 -8 -38
-15 -49 -15 -28 0 -107 -39 -114 -56 -3 -8 -12 -14 -21 -14 -22 0 -192 -177
-192 -200 0 -5 -13 -29 -30 -53 -16 -25 -30 -51 -30 -59 0 -8 -7 -23 -15 -34
-8 -10 -15 -26 -15 -35 0 -9 -7 -22 -15 -29 -8 -7 -15 -23 -15 -35 0 -13 -7
-36 -15 -51 -8 -16 -15 -46 -15 -67 0 -21 -5 -48 -12 -60 -16 -30 -17 -135 -2
-173 7 -16 9 -36 5 -43 -5 -8 -3 -25 5 -40 8 -14 14 -37 14 -51 0 -14 16 -50
35 -80 19 -30 39 -66 45 -79 6 -13 22 -37 35 -53 14 -16 25 -35 25 -42 0 -17
57 -76 74 -76 8 0 17 -8 20 -18 4 -11 19 -25 34 -32 15 -8 34 -20 42 -26 27
-22 138 -74 159 -74 37 0 35 -23 -5 -57 -21 -18 -44 -33 -51 -33 -6 0 -40 -19
-75 -43 -35 -23 -80 -50 -100 -61 -20 -10 -39 -25 -42 -32 -3 -8 -13 -14 -23
-14 -10 0 -36 -14 -57 -30 -22 -17 -44 -30 -49 -30 -5 0 -26 -12 -46 -27 -42
-32 -70 -50 -91 -60 -8 -3 -34 -19 -57 -35 -23 -15 -45 -28 -50 -28 -5 0 -24
-13 -43 -30 -19 -16 -40 -29 -46 -30 -6 0 -29 -12 -51 -27 -53 -38 -70 -48
-122 -75 -24 -13 -46 -28 -48 -35 -3 -7 -13 -13 -22 -13 -9 0 -32 -13 -51 -30
-19 -16 -43 -29 -52 -30 -16 0 -66 -55 -101 -112 -23 -37 -32 -184 -13 -218 8
-14 24 -44 36 -67 11 -22 27 -44 35 -47 8 -3 15 -13 15 -22 0 -9 14 -33 30
-54 17 -21 30 -45 30 -53 0 -23 85 -105 117 -113 15 -4 33 -11 39 -16 7 -5 35
-11 63 -15 38 -4 57 -2 75 11 14 9 37 16 51 16 14 0 44 12 68 27 23 15 58 36
77 46 19 11 39 26 43 33 4 8 13 14 20 14 7 0 43 20 80 45 38 25 71 45 74 45 3
0 25 14 50 30 24 17 47 30 51 30 4 0 23 13 42 30 19 16 40 29 47 30 6 0 41 20
77 45 37 25 69 45 72 45 3 0 26 14 51 30 24 17 46 30 48 30 2 0 44 26 92 57
48 32 104 66 123 76 19 11 42 25 51 33 8 8 19 14 22 14 4 0 36 20 73 45 36 25
69 45 73 45 4 0 27 14 49 30 23 17 46 30 51 30 5 0 14 7 21 15 20 24 72 18
133 -15 31 -17 67 -30 79 -30 13 0 32 -7 42 -15 11 -8 32 -15 47 -15 14 0 43
-7 62 -15 20 -8 49 -15 64 -15 15 0 48 -7 71 -15 60 -21 371 -20 399 0 10 8
34 15 54 15 24 0 50 10 77 30 23 17 46 30 50 30 5 0 28 14 50 30 23 16 44 30
46 30 27 0 246 184 246 206 0 2 20 31 45 65 25 34 45 69 45 79 0 10 7 23 15
30 8 7 15 19 15 27 0 7 6 24 14 36 7 12 17 42 20 67 4 24 11 49 15 55 35 44
30 426 -5 456 -8 6 -14 28 -14 48 -1 34 -15 63 -95 195 -29 48 -137 162 -226
239 -24 21 -53 47 -64 57 -11 10 -30 21 -42 25 -13 3 -23 11 -23 16 0 6 -13
15 -30 20 -16 6 -30 15 -30 20 0 5 -5 9 -11 9 -6 0 -25 11 -42 24 -18 14 -45
28 -62 32 -16 4 -34 13 -40 19 -5 7 -38 22 -73 35 -34 12 -65 27 -68 31 -3 5
-22 9 -43 9 -21 0 -52 7 -67 15 -16 8 -42 15 -59 15 -16 0 -39 7 -49 15 -11 8
-41 15 -66 15 -25 0 -50 4 -56 10 -5 5 -72 11 -148 12 l-138 3 -27 33 c-15 17
-30 32 -34 32 -3 0 -32 18 -65 39 -33 22 -72 43 -88 47 -16 4 -35 13 -42 21
-7 7 -28 13 -45 13 -18 1 -43 7 -57 15 -30 17 -275 21 -285 5z m168 -98 c111
-4 318 -81 354 -132 8 -11 30 -27 49 -35 19 -8 34 -20 34 -28 0 -8 12 -32 28
-53 51 -74 54 -84 59 -206 6 -121 -4 -185 -43 -276 -8 -18 -14 -44 -14 -57 0
-13 -4 -26 -9 -30 -6 -3 -20 -27 -32 -53 -25 -54 -25 -54 -80 -144 -22 -37
-51 -78 -65 -93 -13 -14 -24 -28 -24 -30 0 -11 -165 -165 -176 -165 -7 0 -19
-6 -26 -12 -35 -34 -73 -43 -173 -43 -106 0 -114 2 -263 74 -44 21 -161 118
-169 139 -4 9 -17 30 -30 46 -13 16 -40 61 -59 100 -19 39 -41 76 -48 81 -7 6
-13 26 -13 45 0 19 -1 87 -2 151 -2 87 1 125 13 153 9 21 16 45 16 52 0 8 14
43 30 77 17 35 30 69 30 74 0 6 7 16 15 23 8 7 15 22 15 33 0 11 20 44 45 73
25 28 45 57 45 63 0 6 4 11 8 11 5 0 22 13 38 30 16 16 36 30 45 30 8 0 34 14
57 31 24 17 60 33 82 36 22 3 43 10 46 14 3 5 22 9 42 9 20 1 48 7 62 14 13 8
31 11 40 7 8 -4 41 -8 73 -9z m777 -233 c25 -5 70 -13 102 -17 31 -5 62 -13
70 -18 7 -6 42 -18 78 -28 36 -10 82 -26 102 -37 20 -10 43 -19 51 -19 8 0 31
-11 51 -25 20 -14 43 -25 50 -25 8 0 19 -7 26 -15 7 -8 21 -15 31 -15 10 0 23
-9 29 -20 6 -11 16 -20 21 -20 17 0 114 -78 210 -170 60 -58 159 -188 159
-209 0 -5 7 -14 15 -21 8 -7 15 -20 15 -30 0 -10 7 -23 15 -30 8 -7 15 -27 15
-45 0 -18 7 -49 15 -68 11 -26 15 -74 15 -170 0 -97 -4 -145 -15 -170 -8 -20
-15 -47 -15 -61 0 -13 -7 -37 -15 -52 -8 -16 -15 -36 -15 -45 0 -9 -7 -22 -15
-29 -8 -7 -15 -19 -15 -27 0 -8 -13 -32 -30 -53 -16 -21 -30 -41 -30 -45 0
-13 -94 -115 -106 -115 -6 0 -37 -27 -67 -60 -31 -33 -60 -60 -66 -60 -5 0
-22 -6 -38 -14 -15 -8 -47 -20 -71 -26 -24 -6 -52 -20 -63 -31 -12 -12 -33
-19 -58 -19 -22 0 -42 -4 -45 -8 -7 -12 -256 -15 -270 -3 -6 5 -38 11 -71 14
-79 7 -272 64 -347 103 -14 8 -35 14 -46 14 -11 0 -25 7 -32 15 -7 8 -22 15
-34 15 -11 1 -37 14 -56 30 -19 17 -42 30 -51 30 -9 0 -22 7 -29 15 -7 8 -17
15 -23 15 -6 0 -17 7 -26 15 -17 17 -65 51 -118 86 -18 11 -33 27 -33 35 0 8
-18 25 -40 39 -23 14 -44 34 -47 43 -4 9 -17 32 -30 51 -29 42 -29 49 0 44 13
-3 37 6 60 21 21 14 50 26 65 26 34 0 123 57 139 90 7 14 22 27 35 30 29 7
161 161 190 223 13 26 26 47 31 47 4 0 12 10 17 23 6 12 22 42 35 66 14 24 25
52 25 61 0 9 5 21 12 28 13 13 37 73 45 112 3 14 11 39 18 55 13 29 26 130 27
205 1 65 -19 211 -31 223 -6 6 -11 17 -11 24 0 16 121 17 190 2z m-927 -1357
c25 -31 56 -64 70 -71 14 -8 31 -27 36 -42 5 -16 14 -29 18 -29 5 0 29 -17 55
-37 91 -73 135 -103 183 -124 l49 -22 -44 -38 c-25 -22 -48 -39 -52 -39 -3 0
-37 -20 -75 -45 -37 -25 -72 -45 -77 -45 -4 0 -25 -13 -46 -30 -21 -16 -42
-30 -47 -30 -6 0 -29 -14 -51 -30 -23 -17 -45 -30 -48 -30 -3 0 -26 -13 -51
-30 -24 -16 -46 -30 -48 -30 -3 0 -33 -19 -68 -42 -35 -24 -80 -52 -101 -63
-21 -11 -41 -25 -43 -32 -3 -7 -14 -13 -24 -13 -10 0 -34 -13 -52 -30 -19 -16
-39 -30 -45 -30 -6 0 -39 -19 -74 -43 -35 -23 -80 -50 -100 -61 -20 -10 -39
-25 -42 -32 -3 -8 -13 -14 -23 -14 -10 0 -36 -14 -57 -30 -22 -17 -45 -30 -51
-30 -7 0 -20 -9 -30 -20 -28 -31 -69 -23 -73 14 -2 16 1 33 7 39 17 17 13 37
-12 71 -13 17 -27 38 -31 46 -8 17 -21 38 -59 97 -15 24 -27 47 -27 52 0 5
-13 23 -30 41 -16 18 -30 40 -30 49 0 10 -11 28 -25 41 -27 26 -32 45 -12 54
6 3 26 15 42 26 17 11 39 24 50 30 11 6 34 19 50 30 17 11 37 23 45 27 8 3 31
19 51 35 20 15 41 28 46 28 6 0 29 14 51 30 23 17 44 30 48 30 3 0 29 15 57
34 111 72 173 111 207 129 19 10 40 25 46 33 6 8 16 14 21 14 6 0 28 12 50 28
47 33 67 45 114 70 19 11 69 43 110 71 41 28 79 51 86 51 6 0 32 -26 56 -58z
m-1179 -706 c14 -19 26 -37 26 -41 0 -3 12 -24 27 -48 38 -58 51 -80 59 -97
11 -21 47 -74 57 -81 12 -9 13 -61 1 -66 -11 -4 -84 88 -84 105 0 5 -13 26
-30 48 -16 21 -30 44 -30 51 0 6 -12 26 -26 43 -27 31 -64 97 -64 112 0 21 41
4 64 -26z m-34 -175 c0 -7 8 -24 19 -39 10 -15 39 -59 65 -98 33 -52 54 -74
74 -79 28 -7 62 -32 62 -47 0 -18 -67 -8 -86 13 -10 12 -31 27 -46 35 -16 8
-28 21 -28 29 0 8 -13 30 -30 48 -16 19 -30 40 -30 48 0 7 -7 20 -16 30 -9 10
-16 34 -16 53 0 20 -4 36 -9 36 -5 0 -9 7 -9 15 0 10 7 7 25 -9 14 -13 25 -29
25 -35z"/>
<path d="M2604 3192 c-16 -17 -44 -45 -62 -64 -17 -18 -32 -41 -32 -50 0 -9
-6 -21 -12 -25 -16 -10 -48 -69 -48 -88 0 -7 -7 -18 -15 -25 -8 -7 -15 -29
-15 -50 0 -21 -7 -43 -15 -50 -11 -9 -15 -33 -15 -84 0 -74 11 -101 55 -138
25 -22 91 -24 99 -3 3 8 14 15 24 15 21 0 122 110 122 133 0 8 7 17 15 21 8 3
15 14 15 24 0 11 7 25 15 32 8 7 15 22 15 34 0 12 7 32 16 44 10 14 17 55 21
112 6 84 4 92 -15 111 -12 11 -22 26 -22 34 0 18 -24 31 -76 39 -36 6 -44 4
-70 -22z"/>
<path d="M4040 2465 c-8 -9 -21 -13 -37 -9 -20 5 -32 -2 -68 -40 -47 -51 -57
-82 -51 -163 6 -77 35 -109 159 -171 57 -29 111 -52 120 -52 10 0 20 -7 23
-15 4 -8 14 -15 24 -15 9 0 34 -12 55 -26 21 -14 61 -35 89 -46 28 -11 58 -26
67 -34 8 -8 22 -14 30 -14 8 0 34 -14 59 -30 77 -51 145 -38 191 38 54 88 73
152 48 167 -5 4 -7 19 -4 34 5 24 -1 34 -49 74 -30 26 -61 47 -69 47 -8 0 -17
7 -21 15 -3 8 -13 15 -23 15 -10 0 -27 7 -37 15 -11 8 -27 15 -37 15 -9 0 -27
8 -40 18 -13 10 -40 25 -59 32 -19 8 -39 20 -43 27 -4 7 -15 13 -23 13 -9 0
-28 6 -42 14 -106 55 -153 76 -173 76 -13 0 -33 7 -43 15 -25 19 -31 19 -46 0z"/>
</g>
</svg>
