<?xml version="1.0" standalone="no"?>
<!DOCTYPE svg PUBLIC "-//W3C//DTD SVG 20010904//EN"
 "http://www.w3.org/TR/2001/REC-SVG-20010904/DTD/svg10.dtd">
<svg version="1.0" xmlns="http://www.w3.org/2000/svg"
 width="600.000000pt" height="600.000000pt" viewBox="0 0 600.000000 600.000000"
 preserveAspectRatio="xMidYMid meet">
<metadata>
Created by potrace 1.10, written by Peter Selinger 2001-2011
</metadata>
<g transform="translate(0.000000,600.000000) scale(0.100000,-0.100000)"
fill="#ffffff" stroke="none">
<path d="M2000 4835 c-8 -9 -30 -15 -60 -15 -30 0 -52 -6 -60 -15 -7 -8 -29
-15 -50 -15 -24 0 -40 -5 -44 -15 -3 -9 -18 -15 -39 -15 -19 0 -40 -7 -47 -15
-7 -8 -20 -15 -30 -15 -10 0 -23 -7 -30 -15 -7 -8 -20 -15 -30 -15 -10 0 -23
-7 -30 -15 -7 -8 -20 -15 -30 -15 -10 0 -23 -7 -30 -15 -7 -8 -17 -15 -22 -15
-6 0 -27 -13 -48 -30 -21 -16 -42 -30 -47 -30 -5 0 -41 -28 -79 -63 -39 -34
-84 -73 -102 -85 -17 -13 -66 -64 -108 -115 -43 -51 -84 -96 -91 -100 -7 -4
-13 -14 -13 -22 0 -8 -21 -46 -47 -85 -45 -65 -51 -70 -84 -70 -20 0 -42 -7
-49 -15 -7 -8 -23 -15 -35 -15 -12 0 -28 -7 -35 -15 -7 -8 -18 -15 -25 -15 -7
0 -18 -7 -25 -15 -7 -8 -20 -15 -29 -15 -20 0 -211 -194 -211 -214 0 -7 -7
-19 -15 -26 -8 -7 -15 -20 -15 -30 0 -10 -7 -23 -15 -30 -8 -7 -15 -23 -15
-35 0 -12 -7 -28 -15 -35 -9 -7 -15 -29 -15 -55 0 -26 -6 -48 -15 -55 -22 -18
-22 -242 0 -260 9 -8 15 -29 15 -55 0 -29 5 -45 15 -49 8 -3 15 -15 15 -27 0
-24 29 -80 48 -92 6 -4 12 -15 12 -24 0 -8 13 -32 30 -53 16 -21 30 -42 30
-48 0 -15 228 -232 244 -232 7 0 19 -7 26 -15 7 -8 20 -15 30 -15 10 0 23 -7
30 -15 7 -8 27 -15 45 -15 18 0 38 -7 45 -15 10 -12 45 -15 200 -15 155 0 190
3 200 15 7 8 25 15 40 15 15 0 33 7 40 15 7 8 20 15 30 15 10 0 23 7 30 15 7
8 20 15 30 15 9 0 30 13 46 30 16 16 37 30 47 30 10 0 20 7 23 15 4 8 12 15
20 15 12 0 14 -110 14 -709 0 -618 2 -710 15 -721 8 -7 15 -20 15 -29 0 -24
54 -80 94 -96 19 -8 37 -19 41 -25 4 -6 88 -10 226 -10 l220 0 69 70 c59 59
70 75 70 103 0 19 7 40 15 47 13 11 15 114 15 819 l0 807 37 36 c21 20 45 38
54 40 39 8 359 323 359 353 0 4 14 24 30 45 17 21 30 45 30 53 0 8 7 20 15 27
8 7 15 20 15 30 0 10 7 23 15 30 8 7 15 26 15 43 0 17 7 38 16 48 24 26 23
462 0 488 -9 10 -16 34 -16 53 0 20 -7 41 -15 48 -8 7 -15 23 -15 35 0 12 -7
28 -15 35 -8 7 -15 18 -15 25 0 29 -75 126 -177 228 -59 59 -111 107 -116 107
-5 0 -26 14 -47 30 -21 17 -47 30 -58 30 -11 0 -22 7 -26 15 -3 9 -18 15 -34
15 -16 0 -35 7 -42 15 -7 8 -29 15 -50 15 -21 0 -43 7 -50 15 -10 12 -43 15
-180 15 -137 0 -170 -3 -180 -15z m360 -90 c7 -8 27 -15 45 -15 18 0 38 -7 45
-15 7 -8 20 -15 30 -15 10 0 23 -7 30 -15 7 -8 18 -15 26 -15 43 0 304 -234
304 -272 0 -9 7 -21 15 -28 8 -7 15 -18 15 -25 0 -7 7 -18 15 -25 8 -7 15 -23
15 -37 0 -13 7 -26 15 -29 9 -4 15 -19 15 -39 0 -18 7 -38 15 -45 11 -9 15
-33 15 -89 1 -51 5 -82 15 -95 20 -26 20 -116 0 -142 -9 -12 -14 -43 -15 -85
0 -47 -4 -70 -15 -79 -8 -7 -15 -23 -15 -35 0 -12 -7 -28 -15 -35 -8 -7 -15
-20 -15 -30 0 -10 -7 -23 -15 -30 -8 -7 -15 -16 -15 -21 0 -37 -289 -354 -358
-392 -11 -7 -55 -36 -97 -64 -41 -29 -82 -53 -90 -53 -7 0 -17 -5 -20 -11 -4
-5 -17 -15 -28 -20 -12 -5 -42 -21 -66 -34 -24 -14 -53 -25 -63 -25 -10 0 -21
-7 -24 -15 -4 -8 -18 -15 -34 -15 -15 0 -33 -7 -40 -15 -7 -9 -29 -15 -55 -15
-26 0 -48 -6 -55 -15 -17 -21 -180 -22 -180 -1 0 8 7 16 15 20 11 4 15 21 15
58 1 31 7 61 15 72 21 27 21 149 0 166 -10 9 -15 32 -15 77 0 47 -4 65 -15 69
-10 4 -15 20 -15 45 0 26 -5 42 -15 45 -8 4 -15 16 -15 29 0 12 -7 28 -15 35
-8 7 -15 23 -15 35 0 13 -7 25 -15 29 -8 3 -15 14 -15 24 0 11 -7 25 -15 32
-8 7 -15 19 -15 27 0 8 -12 32 -27 52 -16 20 -32 43 -38 52 -24 39 -128 160
-151 176 -14 10 -43 33 -64 51 -20 17 -42 32 -47 32 -6 0 -16 7 -23 15 -7 8
-20 15 -30 15 -10 0 -23 7 -30 15 -7 8 -25 15 -40 15 -16 0 -30 7 -34 15 -4
11 -20 15 -55 15 -27 0 -52 4 -55 8 -3 5 8 22 24 37 17 16 30 36 30 45 0 9 62
77 138 153 138 138 183 177 199 177 5 0 22 14 38 30 16 17 34 30 41 30 7 0 33
14 57 30 25 17 49 30 55 30 5 0 15 7 22 15 7 8 23 15 35 15 12 0 28 7 35 15 7
8 23 15 35 15 12 0 28 7 35 15 7 8 27 15 45 15 18 0 38 7 45 15 8 10 30 15 62
15 34 0 50 4 54 15 5 13 35 15 179 15 141 0 175 -3 185 -15z m-1214 -780 c10
-8 29 -15 40 -15 12 0 27 -7 34 -15 7 -8 17 -15 23 -15 15 0 85 -60 162 -138
62 -61 175 -218 175 -240 0 -6 7 -12 15 -16 8 -3 15 -16 15 -30 0 -13 7 -26
15 -30 9 -3 15 -18 15 -34 0 -16 7 -35 15 -42 8 -7 15 -25 15 -40 0 -15 7 -33
15 -40 9 -8 15 -30 15 -59 0 -25 7 -55 15 -65 21 -27 20 -183 0 -210 -8 -11
-15 -30 -15 -42 0 -12 -7 -27 -15 -34 -8 -7 -15 -18 -15 -24 -1 -28 -123 -132
-208 -176 -23 -12 -45 -26 -48 -31 -3 -5 -19 -9 -35 -9 -17 0 -32 -6 -35 -15
-5 -13 -36 -15 -194 -15 -154 0 -190 3 -200 15 -7 8 -23 15 -35 15 -12 0 -28
7 -35 15 -7 8 -18 15 -25 15 -7 0 -18 7 -25 15 -7 8 -20 15 -29 15 -17 0 -164
142 -184 178 -7 12 -36 55 -64 97 -29 41 -53 82 -53 89 0 7 -7 19 -15 26 -8 7
-15 27 -15 45 0 18 -7 38 -15 45 -22 18 -22 265 0 274 10 3 15 19 15 45 0 25
5 41 15 45 8 3 15 15 15 27 0 11 14 41 30 66 17 24 30 48 30 52 0 17 132 151
149 151 10 0 30 14 46 30 16 17 39 30 51 30 12 0 27 7 34 15 7 8 25 15 40 15
15 0 33 7 40 15 18 21 198 21 226 0z m1212 -1812 l-3 -778 -40 0 c-33 0 -40 4
-45 25 l-6 25 -249 5 -250 5 -3 658 -2 657 79 0 c58 0 82 4 91 15 8 10 31 15
67 15 38 0 55 4 59 15 4 10 20 15 45 15 26 0 42 5 45 15 4 8 16 15 29 15 12 0
28 7 35 15 7 8 20 15 30 15 10 0 23 7 30 15 7 8 21 15 32 15 10 0 21 7 24 15
4 8 12 15 20 15 12 0 14 -117 12 -777z m-150 -810 l-3 -28 -218 -3 c-187 -2
-218 0 -223 13 -4 8 -4 22 0 30 4 13 39 15 226 15 l221 0 -3 -27z m122 -43 c0
-20 -75 -79 -101 -80 -14 0 -34 -7 -45 -15 -27 -20 -211 -20 -238 0 -11 8 -37
15 -58 15 -27 0 -38 4 -38 15 0 13 26 15 170 15 l169 0 43 30 c42 28 98 40 98
20z"/>
<path d="M2540 4475 c-7 -8 -21 -15 -32 -15 -11 0 -40 -13 -65 -30 -24 -16
-49 -30 -55 -30 -5 0 -27 -13 -48 -30 -21 -16 -42 -30 -48 -30 -5 0 -15 -7
-22 -15 -7 -8 -20 -15 -29 -15 -9 0 -29 -14 -45 -30 -16 -17 -36 -30 -44 -30
-8 0 -31 -13 -52 -30 -21 -16 -41 -30 -45 -30 -16 0 -107 -89 -125 -123 -24
-45 -26 -90 -5 -107 8 -7 15 -22 15 -34 0 -24 40 -66 63 -66 8 0 20 -7 27 -15
9 -10 32 -15 75 -15 43 0 66 5 75 15 7 8 17 15 22 15 6 0 27 14 48 30 21 17
43 30 50 30 7 0 29 12 49 28 42 31 70 49 91 59 8 3 31 19 51 35 20 15 42 28
49 28 7 0 29 14 50 30 21 17 42 30 48 30 5 0 15 7 22 15 7 8 21 15 31 15 10 0
34 20 53 44 28 33 36 52 36 83 0 24 -6 46 -15 53 -8 7 -15 20 -15 29 0 21 -70
91 -92 91 -8 0 -21 7 -28 15 -7 8 -27 15 -45 15 -18 0 -38 -7 -45 -15z"/>
<path d="M590 3326 c-5 -13 -14 -27 -19 -31 -16 -10 -13 -81 4 -95 8 -7 15
-27 15 -45 0 -18 7 -38 15 -45 8 -7 15 -18 15 -26 0 -39 140 -203 212 -250 52
-33 126 -33 156 -1 19 20 22 35 22 100 0 60 -3 79 -15 83 -8 4 -15 17 -15 31
0 14 -13 45 -30 70 -16 24 -30 50 -30 57 0 8 -39 50 -86 95 l-85 81 -75 0
c-69 0 -75 -2 -84 -24z"/>
<path d="M4845 3860 c-49 -9 -91 -30 -131 -67 -38 -35 -74 -94 -74 -120 0 -37
-36 -70 -83 -77 -181 -27 -307 -143 -307 -281 0 -129 68 -206 374 -420 94 -66
131 -99 167 -153 28 -41 31 -55 32 -118 0 -62 -3 -76 -29 -114 -32 -47 -70
-73 -153 -101 -69 -24 -117 -25 -129 -1 -6 9 -13 42 -17 72 -7 61 -43 178 -56
186 -5 3 -9 12 -9 21 0 8 -13 35 -30 60 -16 24 -30 49 -30 54 0 13 -206 219
-219 219 -5 0 -30 14 -54 30 -25 17 -50 30 -55 30 -6 0 -23 6 -39 14 -83 41
-181 60 -313 60 -127 1 -210 -15 -315 -60 -16 -7 -37 -15 -45 -18 -8 -4 -28
-15 -45 -26 -16 -11 -40 -24 -53 -30 -29 -13 -212 -194 -212 -211 0 -7 -6 -20
-14 -28 -17 -19 -71 -121 -78 -147 -45 -156 -49 -184 -49 -289 0 -105 4 -133
49 -289 3 -10 19 -44 35 -75 111 -208 277 -351 482 -414 107 -33 142 -39 244
-38 108 0 195 15 286 50 86 32 99 38 138 65 21 14 42 26 48 26 15 0 172 160
205 210 59 89 111 215 125 300 14 89 24 115 45 118 128 18 250 69 303 127 56
62 74 111 75 205 2 155 -52 222 -324 405 -136 91 -204 154 -231 214 -26 59
-24 98 9 146 33 48 131 99 208 110 l51 7 32 -52 c61 -98 126 -140 219 -140 66
0 72 6 72 81 0 45 9 49 99 49 53 0 72 4 84 18 23 25 21 37 -7 60 -19 14 -43
20 -93 21 -72 2 -97 17 -86 49 13 36 26 42 92 42 44 0 74 5 89 16 51 36 8 74
-84 74 -88 0 -94 4 -94 59 0 25 -4 51 -8 58 -10 16 -51 22 -97 13z m5 -270 c0
-93 -4 -171 -8 -174 -13 -8 -67 34 -93 73 -20 28 -24 47 -24 106 0 61 4 75 25
101 31 38 81 75 92 68 4 -3 8 -81 8 -174z m-1041 -531 c396 -64 663 -433 601
-829 -49 -305 -289 -547 -600 -601 -155 -28 -282 -7 -445 72 -181 88 -351 309
-380 494 -3 22 -10 66 -16 99 -8 45 -6 79 7 150 37 206 124 354 277 473 162
126 355 175 556 142z"/>
<path d="M3249 2731 c-43 -50 -109 -163 -109 -186 0 -7 -7 -26 -15 -41 -24
-46 -21 -263 5 -336 25 -72 63 -141 107 -196 43 -53 66 -66 93 -52 31 16 25
57 -15 101 -74 83 -115 197 -115 324 0 127 41 241 115 324 40 44 46 85 16 101
-31 16 -37 13 -82 -39z"/>
<path d="M4058 2769 c-29 -16 -21 -57 20 -107 84 -102 116 -204 110 -346 -4
-92 -8 -109 -42 -180 -21 -43 -53 -95 -72 -116 -20 -22 -34 -48 -34 -63 0 -33
31 -52 59 -37 49 26 128 153 165 265 22 69 22 252 0 320 -29 85 -75 170 -121
224 -47 53 -56 57 -85 40z"/>
<path d="M3389 2608 c-29 -32 -47 -66 -84 -154 -28 -67 -18 -191 22 -275 51
-106 106 -152 141 -117 17 17 15 55 -5 76 -46 45 -83 139 -83 207 0 54 28 131
68 185 36 50 41 85 13 100 -30 16 -40 13 -72 -22z"/>
<path d="M3916 2624 c-21 -20 -20 -48 0 -65 28 -23 60 -81 72 -131 27 -109 4
-213 -66 -289 -31 -35 -26 -70 12 -84 26 -9 31 -6 62 30 19 21 41 53 50 69 27
53 54 149 54 192 0 75 -52 203 -105 259 -36 38 -55 43 -79 19z"/>
<path d="M3534 2476 c-42 -53 -56 -110 -42 -173 12 -57 59 -123 87 -123 46 0
53 51 15 107 -29 43 -27 80 6 125 26 35 26 74 1 88 -30 16 -38 13 -67 -24z"/>
<path d="M3788 2499 c-22 -13 -23 -57 -2 -80 9 -10 19 -39 22 -64 4 -37 0 -52
-17 -75 -23 -32 -27 -70 -9 -88 22 -22 46 -13 80 30 31 40 33 46 33 123 0 77
-2 83 -33 123 -35 44 -45 48 -74 31z"/>
<path d="M3650 2378 c-11 -12 -20 -26 -20 -31 0 -20 23 -49 46 -57 31 -12 52
-4 68 29 32 61 -46 110 -94 59z"/>
<path d="M3657 1870 c-46 -61 -47 -80 -7 -80 28 0 30 -3 30 -35 0 -19 4 -35 8
-35 14 0 84 101 78 115 -2 7 -17 15 -33 17 -24 3 -28 7 -25 30 5 44 -13 40
-51 -12z"/>
</g>
</svg>
